<?xml version="1.0" encoding="UTF-8"?>
<svg id="a" data-name="Layer 1" xmlns="http://www.w3.org/2000/svg" viewBox="0 0 394 69">
  <defs>
    <style>
      .b {
        fill: #0072bc;
        stroke-width: 0px;
      }

      .c {
        fill: none;
        stroke: #0072bc;
        stroke-miterlimit: 10;
      }
    </style>
  </defs>
  <line class="c" x1="262.31" y1=".83" x2="262.31" y2="67.98"/>
  <g>
    <path class="b" d="M278.48,13.17h14.8c6.05,0,9.94,3.51,9.94,9.18,0,4.54-3.08,7.61-6.32,8.26,3.83.59,7.02,4.59,7.02,8.86,0,5.99-3.89,9.72-10.31,9.72h-15.12V13.17ZM292.9,29.32c4.64,0,7.07-2.92,7.07-6.64s-2.43-6.7-7.07-6.7h-11.34v13.34h11.34ZM293.11,46.38c4.75,0,7.56-2.75,7.56-7.13,0-3.67-2.54-7.13-7.56-7.13h-11.56v14.26h11.56Z"/>
    <path class="b" d="M310.97,23.11h2.81v4.48c2.21-2.92,5.18-5.02,8.8-5.02v3.08c-.49-.11-.86-.11-1.4-.11-2.65,0-6.21,2.38-7.4,4.64v19.01h-2.81v-26.08Z"/>
    <path class="b" d="M343.98,46.11c-2.32,2.54-5.24,3.73-8.86,3.73-4.48,0-9.13-3.08-9.13-8.69s4.59-8.64,9.13-8.64c3.62,0,6.59,1.19,8.86,3.73v-5.29c0-3.89-3.13-5.99-7.02-5.99-3.24,0-5.78,1.13-8.15,3.83l-1.57-1.94c2.7-2.92,5.72-4.37,10.04-4.37,5.29,0,9.5,2.54,9.5,8.37v18.36h-2.81v-3.08ZM343.98,38.34c-1.84-2.38-4.75-3.62-7.88-3.62-4.32,0-7.13,2.75-7.13,6.48s2.81,6.43,7.13,6.43c3.13,0,6.05-1.19,7.88-3.56v-5.72Z"/>
    <path class="b" d="M354.01,43.63c1.67,2.11,4.75,3.83,8.42,3.83,4.37,0,6.97-2.16,6.97-5.18,0-3.35-3.56-4.32-7.29-5.29-4.37-1.08-9.18-2.21-9.18-7.29,0-4,3.4-7.24,9.29-7.24,4.48,0,7.45,1.73,9.34,3.83l-1.57,2c-1.51-2.05-4.32-3.46-7.78-3.46-4.05,0-6.53,2-6.53,4.7,0,2.97,3.35,3.78,6.97,4.7,4.48,1.13,9.5,2.38,9.5,7.94,0,4.21-3.24,7.67-9.77,7.67-4.21,0-7.45-1.24-10.04-4.1l1.67-2.11Z"/>
    <path class="b" d="M377.44,16.63c0-1.19,1.03-2.16,2.16-2.16s2.16.97,2.16,2.16-.97,2.16-2.16,2.16-2.16-.97-2.16-2.16ZM378.2,23.11h2.81v26.08h-2.81v-26.08Z"/>
    <path class="b" d="M388.73,13.17h2.81v36.02h-2.81V13.17Z"/>
  </g>
  <g>
    <g>
      <path class="b" d="M41.09,46.52c.8,0,.69-.45.69-1.3v-4.11c0-.85-.08-1.12.41-1.12,1.69,0,2.15-.16,2.15-1.66v-15.26c0-4.16-2.93-3.47-3.76-4.99-1.18-2.05,2.2-2.05.97-6.5-.31-1.01-1.1-1.63-2.62-1.63s-2.32.62-2.63,1.63c-1.22,4.45,2.15,4.45.98,6.5-.83,1.52-3.76.83-3.76,4.99v15.26c0,1.5.45,1.66,2.15,1.66.47,0,.4.27.4,1.12v4.11c0,.84-.1,1.3.7,1.3h4.33"/>
      <path class="b" d="M27.73,13.42c-1.5,1.6-3.87,5.33-2.32,8.42,3.15,1.21,2.91-9.97,6.83-9.78,1.94,1.79-.58,7.07-1.36,9.39-.97,2.86-1.74,8.86-3.58,11.77-1.55,2.42-.39,10.03-.87,12.64-1.3,1.31-4.84.38-6.34.14,0-3-.39-5.37-.87-10.17-.05-.97-1.07-15.78-.24-17.58,1.7-3.73,10.94-10.85,12.21-12.2,1.11-1.21,5.03-5.23,6.53-5.23,1.06.73.43,2.42.2,3.1-1.5,3.73-7.99,7.41-10.17,9.49"/>
      <path class="b" d="M50.29,13.42c1.45,1.6,3.83,5.33,2.32,8.42-3.19,1.21-2.95-9.97-6.88-9.78-1.88,1.79.63,7.07,1.41,9.39.97,2.86,1.75,8.86,3.58,11.77,1.51,2.42.39,10.03.82,12.64,1.36,1.31,4.84.38,6.39.14,0-3,.34-5.37.82-10.17.1-.97,1.11-15.78.29-17.58-1.69-3.73-10.94-10.85-12.2-12.2-1.16-1.21-5.04-5.23-6.54-5.23-1.11.73-.43,2.42-.19,3.1,1.5,3.73,7.99,7.41,10.17,9.49"/>
      <path class="b" d="M14.28,8.39c-.82.78-2.67,1.31-3.93,3-.48-.92.78-3.15,2.28-4.46,1.11-.93,3.3-2.43,3.92-2.57.49,1.11-1.26,2.82-2.27,4.03"/>
      <path class="b" d="M11.7,14.46c-1.4,1.3-2.91,1.84-4.85,4.22-.82-2.87-.63-5.39-.24-7.09.68-2.23,1.8-4.71,3.69-5.48-.39,1.26-1.03,3.01-1.17,5.39-.82,3.25-1.31,3.35-1.11,3.78.19,0,1.26-1.7,2.57-3.01,1.56-1.55,3.49-1.89,4.75-2.81-.19.63-1.3,2.62-3.64,5"/>
      <path class="b" d="M4.87,27.9c-1.89-3.4-2.09-5.87-2.24-8.74.1-1.99,1.07-6.59,2.52-7.27-.44,4.17.68,4.56.24,8,0,.19-.49,3.79-.49,3.98.58-.1.05-3.3,6.69-7.91-1.45,2.52-.78,3.3-3.4,6.65-3.05,3.01-3.49,5.96-3.34,5.29"/>
      <path class="b" d="M7.54,31.1c-1.41,2.04-1.17,3.05-1.51,4.02-3.35-1.94-7.13-9.65-5.73-13.48.88,2.91,2.09,3.54,2.96,5.97,1.51,3.64,1.27,4.75,2.23,5.58-.2-1.89.44-4.13,1.07-5.77.92-1.41,1.64-3.25,2.33-3.88.73,2.67.19,4.85-1.36,7.57"/>
      <path class="b" d="M10.54,37.7c0,2.96-.54,4.27-.78,6.45-5.77-1.89-8.78-8.49-8.78-11.74,1.75,3.98,4.32,3.93,7.67,9.56.29-2.14-.59-.54-.68-4.56.09-4.22.97-4.37,1.11-6.99,1.07,1.16,1.46,5.82,1.46,7.28"/>
      <path class="b" d="M15.34,46.09c.44,2.18.63,4.76.97,6.65-3.3-1.21-4.13-.29-8.05-2.77-1.8-.97-5-5.04-4.8-7.96,3.88,4.32,4.56,3.84,6.45,5.44,1.75,1.41,3.15,3.5,4.42,3.21.09-1.17-2.86-3.69-2.48-10.97.78.82,2.91,4.12,3.49,6.4"/>
      <path class="b" d="M21.89,51.53c1.02,1.45.78,2.08,3.4,5.09-.64.29-4.37,1.26-6.85,1.36-1.64,0-7.47-1.55-9.4-5.53,3.35,1.79,3.4,1.36,7.86,2.33,3.2.73,5.48,1.75,6.36,1.65-.19-.44-2.66-1.46-4.37-3.59-1.7-2.28-1.31-4.85-2.82-6.75,1.02-.29,5,4.37,5.82,5.44"/>
      <path class="b" d="M63.47,8.39c.78.78,2.67,1.31,3.88,3,.53-.92-.77-3.15-2.28-4.46-1.06-.93-3.25-2.43-3.93-2.57-.48,1.11,1.26,2.82,2.33,4.03"/>
      <path class="b" d="M66.04,14.46c1.36,1.3,2.86,1.84,4.8,4.22.83-2.87.63-5.39.25-7.09-.63-2.23-1.8-4.71-3.69-5.48.44,1.26,1.02,3.01,1.17,5.39.82,3.25,1.31,3.35,1.12,3.78-.19,0-1.26-1.7-2.58-3.01-1.5-1.55-3.45-1.89-4.75-2.81.2.63,1.36,2.62,3.69,5"/>
      <path class="b" d="M72.84,27.9c1.94-3.4,2.08-5.87,2.23-8.74-.1-1.99-1.07-6.59-2.48-7.27.39,4.17-.73,4.56-.24,8,0,.19.44,3.79.44,3.98-.53-.1-.05-3.3-6.65-7.91,1.41,2.52.73,3.3,3.35,6.65,3.1,3.01,3.49,5.96,3.35,5.29"/>
      <path class="b" d="M70.21,31.1c1.36,2.04,1.12,3.05,1.46,4.02,3.35-1.94,7.18-9.65,5.72-13.48-.82,2.91-2.08,3.54-2.91,5.97-1.55,3.64-1.31,4.75-2.23,5.58.19-1.89-.49-4.13-1.12-5.77-.87-1.41-1.65-3.25-2.33-3.88-.68,2.67-.2,4.85,1.41,7.57"/>
      <path class="b" d="M67.16,37.7c0,2.96.58,4.27.82,6.45,5.73-1.89,8.78-8.49,8.78-11.74-1.8,3.98-4.32,3.93-7.71,9.56-.29-2.14.58-.54.68-4.56-.1-4.22-.97-4.37-1.12-6.99-1.06,1.16-1.45,5.82-1.45,7.28"/>
      <path class="b" d="M62.36,46.09c-.44,2.18-.58,4.76-.92,6.65,3.25-1.21,4.08-.29,8-2.77,1.8-.97,5.05-5.04,4.85-7.96-3.88,4.32-4.61,3.84-6.45,5.44-1.75,1.41-3.21,3.5-4.47,3.21-.1-1.17,2.86-3.69,2.53-10.97-.83.82-2.96,4.12-3.54,6.4"/>
      <path class="b" d="M55.8,51.53c-.97,1.45-.73,2.08-3.39,5.09.68.29,4.37,1.26,6.89,1.36,1.6,0,7.42-1.55,9.36-5.53-3.34,1.79-3.39,1.36-7.85,2.33-3.2.73-5.44,1.75-6.35,1.65.19-.44,2.71-1.46,4.37-3.59,1.69-2.28,1.31-4.85,2.86-6.75-1.06-.29-5.04,4.37-5.87,5.44"/>
      <path class="b" d="M30.58,65.21l-.97-.49s6.17-7.52,16.74-6.94c10.58.58,9.85,3.06,15.52,2.67.63-.05-.48.78-.48.78,0,0-5.53,2.13-12.37-.2-6.79-2.33-11.21-3.74-18.43,4.17"/>
      <path class="b" d="M47.31,65.21l.98-.49s-6.12-7.52-16.69-6.94c-10.63.58-9.9,3.06-15.57,2.67-.63-.05.48.78.48.78,0,0,5.53,2.13,12.37-.2,6.84-2.33,11.26-3.74,18.43,4.17"/>
    </g>
    <g>
      <g>
        <path class="b" d="M104.13,20.45c0,6.01-3.24,8.89-9.86,8.89s-9.89-2.88-9.89-8.89V7.16h6.67v11.8c0,2.21,0,4.98,3.25,4.98s3.16-2.76,3.16-4.98V7.16h6.67v13.29"/>
        <polygon class="b" points="108.14 7.16 114.96 7.16 121.27 18.75 121.33 18.75 121.33 7.16 127.64 7.16 127.64 28.82 121.15 28.82 114.51 16.99 114.44 16.99 114.44 28.82 108.14 28.82 108.14 7.16"/>
        <polygon class="b" points="131.74 7.16 138.41 7.16 138.41 14.68 144.66 14.68 144.66 7.16 151.33 7.16 151.33 28.82 144.66 28.82 144.66 20.23 138.41 20.23 138.41 28.82 131.74 28.82 131.74 7.16"/>
        <path class="b" d="M168.41,15.23c-.12-.79-.73-3.18-3.49-3.18-3.12,0-4.12,3.03-4.12,5.94s1,5.95,4.12,5.95c2.25,0,3.13-1.58,3.52-3.61h6.55c0,4.37-3.55,9.01-9.89,9.01-7.01,0-10.98-4.95-10.98-11.35,0-6.83,4.31-11.34,10.98-11.34,5.94.03,9.22,3.15,9.8,8.58h-6.49"/>
        <path class="b" d="M184.46,12.32h3.13c2.55,0,3.31.79,3.31,2.16,0,1.94-1.7,2.15-2.94,2.15h-3.49v-4.31ZM177.78,28.82h6.67v-7.55h3.55c2.64,0,2.82,2.15,3,4.22.09,1.12.21,2.24.55,3.33h6.67c-.61-1-.64-3.58-.73-4.64-.24-2.7-1.36-4.7-3.19-5.4,2.22-.82,3.25-3.18,3.25-5.43,0-4.1-3.28-6.19-7.07-6.19h-12.71v21.66"/>
      </g>
      <g>
        <path class="b" d="M95.84,39.96h.06l2,6.82h-4.19l2.14-6.82ZM92.53,32.55l-8.15,22.13h6.84l1-3.16h7.04l.92,3.16h7.07l-8.05-22.13h-6.68Z"/>
        <path class="b" d="M128.17,40.8h-6.65c-.11-.74-.42-1.46-.94-2.18-.51-.72-1.39-1.07-2.62-1.07-1.46,0-2.53.59-3.21,1.76-.68,1.17-1.01,2.62-1.01,4.32s.34,3.13,1.01,4.31c.68,1.18,1.75,1.76,3.21,1.76,1.06,0,1.87-.32,2.42-.97.56-.65.94-1.55,1.17-2.71h6.71c0,1.12-.22,2.23-.67,3.32-.45,1.09-1.12,2.09-2,2.98-.88.89-1.96,1.6-3.23,2.12-1.27.52-2.67.78-4.22.78-2.32,0-4.33-.5-6.03-1.51-1.7-1.01-2.99-2.4-3.87-4.17-.88-1.77-1.33-3.74-1.33-5.91,0-1.75.26-3.32.78-4.73.52-1.41,1.28-2.64,2.29-3.69,1.01-1.05,2.2-1.84,3.56-2.38,1.36-.54,2.89-.8,4.59-.8,1.5,0,2.84.19,4.02.58,1.19.39,2.2.96,3.05,1.71.85.75,1.52,1.67,2.01,2.77.49,1.09.81,2.33.94,3.71"/>
        <polygon class="b" points="144.34 32.55 144.34 44.39 144.28 44.39 137.84 32.55 130.86 32.55 130.86 54.69 137.31 54.69 137.31 42.59 137.37 42.59 144.15 54.69 150.79 54.69 150.79 32.55 144.34 32.55"/>
        <path class="b" d="M174.17,32.55v13.58c0,3.05-.84,5.32-2.51,6.83-1.67,1.5-4.2,2.26-7.58,2.26-1.71,0-3.18-.19-4.43-.56-1.25-.37-2.29-.94-3.14-1.69-.85-.75-1.48-1.7-1.9-2.85-.42-1.14-.63-2.47-.63-3.99v-13.58h6.82v12.05c0,1.05.06,1.91.17,2.59.11.68.41,1.26.91,1.76.5.49,1.24.74,2.24.74s1.71-.25,2.19-.74c.48-.49.77-1.08.88-1.76.11-.68.16-1.54.16-2.59v-12.05h6.82Z"/>
        <path class="b" d="M184.16,37.82v4.4h3.57c.85,0,1.56-.15,2.14-.44.58-.29.86-.88.86-1.77,0-.73-.25-1.27-.75-1.64-.5-.37-1.38-.55-2.63-.55h-3.19ZM177.34,54.69v-22.13h12.99c.97,0,1.9.14,2.79.41.89.27,1.67.68,2.33,1.22.67.54,1.18,1.2,1.55,1.99.37.79.55,1.69.55,2.71,0,1.24-.28,2.37-.85,3.4-.56,1.02-1.39,1.74-2.46,2.14.91.33,1.65.99,2.22,1.97.57.98.91,2.17,1.04,3.56.02.29.06.81.11,1.57.05.75.12,1.4.22,1.93.1.53.23.95.42,1.24h-6.81c-.26-.83-.45-1.96-.56-3.41-.08-.9-.19-1.64-.33-2.24-.14-.59-.43-1.09-.85-1.48-.43-.39-1.06-.59-1.89-.59h-3.63v7.72h-6.82Z"/>
      </g>
      <g>
        <path class="b" d="M88.71,58.34l2.72,7.26h-1.66l-.55-1.62h-2.72l-.57,1.62h-1.61l2.75-7.26h1.64ZM88.8,62.8l-.92-2.67h-.02l-.95,2.67h1.88Z"/>
        <path class="b" d="M96.73,65.99c-.06.27-.18.52-.37.76-.19.23-.46.43-.82.59-.36.16-.84.24-1.44.24-.26,0-.52-.03-.79-.1-.27-.06-.51-.16-.73-.3-.22-.14-.4-.31-.55-.52-.15-.21-.23-.47-.25-.77h1.43c.07.27.2.46.4.56.2.11.42.16.68.16.41,0,.7-.12.89-.37.19-.24.28-.55.27-.93v-.69h-.02c-.16.28-.38.48-.67.61-.29.13-.59.2-.91.2-.39,0-.73-.07-1.02-.21-.29-.14-.52-.33-.7-.57-.18-.24-.32-.52-.4-.84-.08-.32-.13-.66-.13-1.02,0-.34.05-.67.15-.98.1-.32.24-.59.43-.83.19-.24.43-.43.71-.58.28-.14.61-.21.97-.21.35,0,.65.06.91.19.26.13.48.35.66.65h.02v-.7h1.37v4.92c0,.21-.03.45-.09.72ZM94.75,64.24c.16-.08.29-.19.39-.33.1-.14.18-.29.23-.46.05-.17.08-.35.08-.54,0-.22-.02-.42-.06-.62-.04-.19-.11-.36-.2-.51-.1-.15-.22-.27-.38-.36-.16-.09-.35-.13-.59-.13-.2,0-.38.04-.52.12-.15.08-.27.19-.37.33s-.17.3-.21.48c-.04.18-.07.37-.07.57s.02.38.06.56c.04.19.1.35.19.5.09.15.21.27.36.37.15.1.34.14.56.14.2,0,.38-.04.54-.12Z"/>
        <path class="b" d="M99.51,64.35c.22.21.53.32.94.32.29,0,.54-.07.75-.22.21-.15.34-.3.39-.46h1.27c-.2.63-.52,1.08-.94,1.35-.42.27-.93.41-1.53.41-.41,0-.79-.07-1.12-.2s-.61-.32-.84-.56c-.23-.24-.41-.54-.53-.87-.13-.34-.19-.71-.19-1.12s.06-.76.19-1.1c.13-.34.31-.63.55-.88.24-.25.52-.44.85-.59.33-.14.69-.21,1.09-.21.45,0,.84.09,1.17.26.33.17.61.41.82.7.21.29.37.62.46,1,.1.37.13.76.1,1.17h-3.79c.02.47.14.81.36,1.02ZM101,58.25l1.12,1.44h-1.19l-.63-.82-.65.82h-1.09l1.12-1.44h1.32ZM101.14,61.58c-.17-.19-.44-.29-.79-.29-.23,0-.42.04-.57.12-.15.08-.27.17-.37.29-.09.12-.16.24-.19.37-.04.13-.06.24-.07.35h2.35c-.07-.37-.19-.64-.36-.83Z"/>
        <path class="b" d="M105.19,60.35v.73h.03c.18-.31.42-.53.71-.67.29-.14.59-.21.9-.21.39,0,.7.05.95.16.25.11.44.25.58.44.14.19.24.41.3.68.06.27.09.56.09.89v3.24h-1.44v-2.97c0-.43-.07-.76-.2-.97-.14-.21-.38-.32-.72-.32-.39,0-.68.12-.85.35-.18.23-.26.62-.26,1.15v2.76h-1.44v-5.26h1.37Z"/>
        <path class="b" d="M112.33,61.29c-.23,0-.42.05-.58.16-.16.11-.28.24-.38.41-.1.17-.17.35-.21.55-.04.2-.06.4-.06.59s.02.38.06.58c.04.2.11.38.2.53s.22.29.37.39c.16.1.35.15.57.15.35,0,.61-.1.8-.29.19-.19.3-.45.35-.78h1.39c-.1.7-.37,1.23-.81,1.6-.45.37-1.02.55-1.72.55-.39,0-.75-.07-1.08-.2-.33-.13-.61-.32-.84-.55-.23-.24-.41-.52-.54-.85s-.19-.69-.19-1.08.06-.78.18-1.13c.12-.35.29-.65.52-.9.23-.25.51-.45.84-.6.33-.14.71-.21,1.14-.21.31,0,.61.04.9.12.29.08.55.21.77.37s.41.37.55.62c.14.25.22.54.24.88h-1.41c-.1-.6-.45-.91-1.07-.91Z"/>
        <path class="b" d="M115.7,59.54v-1.19h1.44v1.19h-1.44ZM117.15,60.35v5.26h-1.44v-5.26h1.44Z"/>
        <path class="b" d="M118.24,61.97c.02-.34.1-.62.25-.84.15-.22.34-.4.57-.54.23-.14.49-.23.78-.29.29-.06.58-.09.87-.09.26,0,.53.02.8.06.27.04.52.11.74.22.22.11.41.26.55.45.14.19.21.45.21.77v2.74c0,.24.01.46.04.68.03.22.07.38.14.49h-1.47c-.03-.08-.05-.16-.07-.25-.02-.08-.03-.17-.04-.26-.23.24-.5.4-.81.5-.31.1-.63.14-.96.14-.25,0-.49-.03-.7-.09-.22-.06-.41-.16-.57-.29-.16-.13-.29-.29-.38-.49-.09-.2-.14-.43-.14-.7,0-.3.05-.55.16-.74.11-.19.24-.35.41-.46.17-.12.36-.2.57-.26.21-.06.43-.1.65-.14.22-.03.43-.06.64-.08.21-.02.4-.05.56-.09.16-.04.29-.1.39-.18.1-.08.14-.19.13-.34,0-.16-.03-.28-.08-.37-.05-.09-.12-.16-.2-.21-.08-.05-.18-.08-.29-.1-.11-.02-.23-.03-.36-.03-.29,0-.51.06-.67.18-.16.12-.26.33-.28.61h-1.44ZM121.57,63.03c-.06.05-.14.1-.23.13-.09.03-.19.06-.3.08-.11.02-.22.04-.33.05-.12.01-.23.03-.35.05-.11.02-.22.05-.32.08s-.2.08-.27.14c-.08.06-.14.13-.19.22-.05.09-.07.2-.07.34,0,.13.02.24.07.33.05.09.11.16.19.21.08.05.18.09.29.11.11.02.22.03.34.03.29,0,.51-.05.66-.14.16-.1.27-.21.35-.34.07-.13.12-.27.14-.4.02-.14.03-.24.03-.33v-.54Z"/>
        <path class="b" d="M130.6,64.94c-.17.29-.39.49-.67.62-.27.13-.58.19-.93.19-.39,0-.74-.08-1.04-.23-.3-.15-.54-.36-.74-.62-.19-.26-.34-.56-.44-.9-.1-.34-.15-.69-.15-1.06s.05-.69.15-1.02.24-.62.44-.87c.19-.25.44-.45.73-.61.29-.15.63-.23,1.02-.23.31,0,.61.07.89.2.28.13.5.33.67.58h.02v-2.64h1.44v7.26h-1.37v-.67h-.02ZM130.54,62.34c-.04-.2-.11-.38-.21-.53-.1-.15-.23-.28-.38-.37-.16-.1-.35-.14-.59-.14s-.44.05-.6.14-.29.22-.39.38c-.1.16-.17.33-.21.53-.04.2-.07.41-.07.63,0,.2.02.41.07.61.05.2.12.39.23.54.11.16.24.29.4.39.16.1.35.15.57.15.24,0,.44-.05.6-.14.16-.1.29-.22.38-.38.09-.16.16-.34.2-.54s.06-.41.06-.63-.02-.43-.06-.63Z"/>
        <path class="b" d="M133.05,61.97c.02-.34.11-.62.25-.84.15-.22.34-.4.57-.54.23-.14.49-.23.78-.29.29-.06.58-.09.87-.09.26,0,.53.02.8.06.27.04.52.11.74.22.22.11.41.26.55.45.14.19.21.45.21.77v2.74c0,.24.01.46.04.68.03.22.07.38.14.49h-1.47c-.03-.08-.05-.16-.07-.25-.02-.08-.03-.17-.04-.26-.23.24-.5.4-.81.5-.31.1-.63.14-.96.14-.25,0-.48-.03-.7-.09-.22-.06-.41-.16-.57-.29-.16-.13-.29-.29-.38-.49-.09-.2-.14-.43-.14-.7,0-.3.05-.55.16-.74.11-.19.24-.35.41-.46.17-.12.36-.2.57-.26.21-.06.43-.1.65-.14.22-.03.43-.06.64-.08.21-.02.4-.05.56-.09.16-.04.29-.1.39-.18.09-.08.14-.19.13-.34,0-.16-.03-.28-.08-.37-.05-.09-.12-.16-.2-.21-.08-.05-.18-.08-.3-.1-.11-.02-.23-.03-.36-.03-.28,0-.51.06-.67.18-.16.12-.26.33-.29.61h-1.44ZM136.39,63.03c-.06.05-.14.1-.23.13-.09.03-.19.06-.29.08-.11.02-.22.04-.33.05-.12.01-.23.03-.35.05-.11.02-.22.05-.32.08-.11.03-.2.08-.27.14-.08.06-.14.13-.19.22-.05.09-.07.2-.07.34,0,.13.02.24.07.33.05.09.11.16.19.21.08.05.18.09.29.11.11.02.22.03.34.03.29,0,.51-.05.66-.14.16-.1.27-.21.35-.34.07-.13.12-.27.14-.4.02-.14.03-.24.03-.33v-.54Z"/>
        <path class="b" d="M141.76,60.5c.16-.46.4-.87.7-1.22.31-.35.68-.62,1.12-.81s.94-.3,1.5-.3,1.06.1,1.51.3c.44.2.81.47,1.12.81.31.35.54.75.7,1.22.16.46.24.97.24,1.51s-.08,1.02-.24,1.48c-.16.46-.4.86-.7,1.19-.31.34-.68.61-1.12.8-.44.19-.94.29-1.51.29s-1.06-.1-1.5-.29c-.44-.19-.82-.46-1.12-.8-.31-.34-.54-.74-.7-1.19-.16-.46-.24-.95-.24-1.48s.08-1.05.24-1.51ZM143.22,62.9c.07.29.19.55.34.78.16.23.36.42.61.55.25.14.56.21.92.21s.66-.07.92-.21c.25-.14.45-.32.61-.55.16-.23.27-.49.34-.78.07-.29.11-.59.11-.89s-.04-.63-.11-.93c-.07-.3-.19-.57-.34-.8-.16-.23-.36-.42-.61-.56-.25-.14-.56-.21-.92-.21s-.66.07-.92.21c-.25.14-.45.33-.61.56-.16.23-.27.5-.34.8-.07.3-.11.61-.11.93s.04.6.11.89Z"/>
        <path class="b" d="M151.28,58.34l3.03,4.87h.02v-4.87h1.5v7.26h-1.6l-3.02-4.86h-.02v4.86h-1.5v-7.26h1.59Z"/>
        <path class="b" d="M162.55,65.05c-.55.48-1.31.72-2.28.72s-1.75-.24-2.28-.71c-.54-.47-.81-1.21-.81-2.2v-4.52h1.6v4.52c0,.2.02.39.05.58.03.19.11.36.21.5.11.15.26.26.45.36.19.09.45.14.78.14.57,0,.96-.13,1.18-.38.22-.25.33-.65.33-1.2v-4.52h1.6v4.52c0,.98-.28,1.71-.82,2.19Z"/>
        <path class="b" d="M168.69,60.35v.67h.02c.18-.29.4-.49.67-.62.27-.13.57-.19.89-.19.41,0,.77.08,1.07.23.3.16.55.36.74.62.2.26.34.56.44.9.1.34.14.7.14,1.07,0,.35-.05.69-.14,1.02s-.24.61-.43.86c-.19.25-.43.45-.72.6-.29.15-.63.22-1.01.22-.33,0-.63-.07-.9-.2-.27-.13-.5-.33-.68-.58h-.02v2.49h-1.44v-7.1h1.37ZM170.57,64.52c.16-.1.29-.22.39-.37.1-.15.17-.33.21-.53.04-.2.06-.41.06-.62s-.02-.42-.07-.62c-.04-.2-.12-.38-.22-.54-.1-.16-.23-.29-.39-.39-.16-.1-.35-.15-.59-.15s-.44.05-.59.15c-.16.1-.29.23-.39.38-.1.16-.17.34-.21.54-.04.2-.06.41-.06.63s.02.42.07.62c.04.2.12.38.21.53.1.15.23.28.39.37.16.1.36.14.59.14s.44-.05.6-.14Z"/>
        <path class="b" d="M173.46,61.97c.02-.34.11-.62.25-.84.15-.22.34-.4.57-.54.23-.14.49-.23.78-.29.29-.06.58-.09.87-.09.26,0,.53.02.8.06.27.04.52.11.74.22.22.11.41.26.55.45.14.19.21.45.21.77v2.74c0,.24.01.46.04.68.03.22.07.38.14.49h-1.47c-.03-.08-.05-.16-.07-.25-.02-.08-.03-.17-.04-.26-.23.24-.5.4-.81.5-.31.1-.63.14-.96.14-.25,0-.48-.03-.7-.09-.22-.06-.41-.16-.57-.29-.16-.13-.29-.29-.38-.49-.09-.2-.14-.43-.14-.7,0-.3.05-.55.16-.74.11-.19.24-.35.41-.46.17-.12.36-.2.57-.26.21-.06.43-.1.65-.14.22-.03.43-.06.64-.08.21-.02.4-.05.56-.09.16-.04.29-.1.39-.18.09-.08.14-.19.13-.34,0-.16-.03-.28-.08-.37-.05-.09-.12-.16-.2-.21-.08-.05-.18-.08-.3-.1-.11-.02-.23-.03-.36-.03-.28,0-.51.06-.67.18-.16.12-.26.33-.29.61h-1.44ZM176.8,63.03c-.06.05-.14.1-.23.13-.09.03-.19.06-.29.08-.11.02-.22.04-.33.05-.12.01-.23.03-.35.05-.11.02-.22.05-.32.08s-.2.08-.28.14c-.08.06-.14.13-.19.22-.05.09-.07.2-.07.34,0,.13.02.24.07.33.05.09.11.16.19.21.08.05.18.09.29.11.11.02.22.03.34.03.29,0,.51-.05.66-.14.16-.1.27-.21.35-.34.07-.13.12-.27.14-.4.02-.14.03-.24.03-.33v-.54Z"/>
        <path class="b" d="M180.76,60.35v.98h.02c.07-.16.16-.31.28-.45.12-.14.25-.26.4-.36.15-.1.31-.17.48-.23.17-.05.35-.08.53-.08.1,0,.2.02.32.05v1.34c-.07-.01-.15-.03-.24-.04-.1-.01-.19-.02-.27-.02-.26,0-.49.04-.67.13-.18.09-.33.21-.44.36-.11.15-.19.33-.24.53-.05.2-.07.42-.07.66v2.37h-1.44v-5.26h1.37Z"/>
        <path class="b" d="M183.35,61.97c.02-.34.11-.62.25-.84.15-.22.34-.4.57-.54.23-.14.49-.23.78-.29.29-.06.58-.09.87-.09.26,0,.53.02.8.06.27.04.52.11.74.22.22.11.41.26.55.45.14.19.21.45.21.77v2.74c0,.24.01.46.04.68.03.22.07.38.14.49h-1.47c-.03-.08-.05-.16-.07-.25-.02-.08-.03-.17-.04-.26-.23.24-.5.4-.81.5-.31.1-.63.14-.96.14-.25,0-.48-.03-.7-.09-.22-.06-.41-.16-.57-.29-.16-.13-.29-.29-.38-.49-.09-.2-.14-.43-.14-.7,0-.3.05-.55.16-.74.11-.19.24-.35.41-.46.17-.12.36-.2.57-.26.21-.06.43-.1.65-.14.22-.03.43-.06.64-.08.21-.02.4-.05.56-.09.16-.04.29-.1.39-.18.09-.08.14-.19.13-.34,0-.16-.03-.28-.08-.37-.05-.09-.12-.16-.2-.21-.08-.05-.18-.08-.3-.1-.11-.02-.23-.03-.36-.03-.28,0-.51.06-.67.18-.16.12-.26.33-.29.61h-1.44ZM186.69,63.03c-.06.05-.14.1-.23.13-.09.03-.19.06-.29.08-.11.02-.22.04-.33.05-.12.01-.23.03-.35.05-.11.02-.22.05-.32.08s-.2.08-.27.14c-.08.06-.14.13-.19.22-.05.09-.07.2-.07.34,0,.13.02.24.07.33.05.09.11.16.19.21.08.05.18.09.29.11.11.02.22.03.34.03.29,0,.51-.05.66-.14.16-.1.27-.21.35-.34s.12-.27.14-.4c.02-.14.03-.24.03-.33v-.54Z"/>
        <path class="b" d="M196.05,58.34c.33,0,.62.05.88.16.26.11.48.25.67.43.19.18.33.4.43.64.1.24.15.5.15.78,0,.43-.09.8-.27,1.11-.18.31-.47.55-.88.71v.02c.2.05.36.14.49.25.13.11.23.24.32.4.08.15.14.32.18.5.04.18.06.37.08.55,0,.12.01.25.02.41,0,.16.02.32.04.48.02.16.04.32.08.46.04.15.09.27.17.37h-1.6c-.09-.23-.14-.51-.16-.82-.02-.32-.05-.62-.09-.91-.05-.38-.17-.66-.35-.83-.18-.18-.46-.26-.86-.26h-1.6v2.84h-1.6v-7.26h3.92ZM195.48,61.63c.37,0,.64-.08.82-.24.18-.16.27-.43.27-.79s-.09-.61-.27-.77c-.18-.16-.46-.24-.82-.24h-1.75v2.05h1.75Z"/>
        <path class="b" d="M200.78,64.35c.22.21.53.32.94.32.29,0,.54-.07.75-.22.21-.15.34-.3.39-.46h1.27c-.2.63-.52,1.08-.94,1.35-.42.27-.93.41-1.53.41-.41,0-.79-.07-1.12-.2-.33-.13-.61-.32-.84-.56-.23-.24-.41-.54-.53-.87-.13-.34-.19-.71-.19-1.12s.06-.76.19-1.1c.13-.34.31-.63.55-.88.24-.25.52-.44.85-.59.33-.14.69-.21,1.09-.21.45,0,.84.09,1.17.26.33.17.6.41.82.7s.37.62.46,1c.1.37.13.76.1,1.17h-3.79c.02.47.14.81.36,1.02ZM202.42,61.58c-.17-.19-.44-.29-.79-.29-.23,0-.42.04-.57.12-.15.08-.28.17-.37.29-.09.12-.16.24-.19.37-.04.13-.06.24-.07.35h2.35c-.07-.37-.19-.64-.36-.83Z"/>
        <path class="b" d="M204.51,61.32v-.97h.86v-.41c0-.47.15-.85.44-1.15.29-.3.73-.45,1.32-.45.13,0,.26,0,.39.02.13.01.25.02.38.03v1.08c-.17-.02-.35-.03-.53-.03-.2,0-.34.05-.42.14-.08.09-.13.25-.13.46v.32h1v.97h-1v4.29h-1.44v-4.29h-.86Z"/>
        <path class="b" d="M212.03,65.61v-.73h-.03c-.18.3-.42.53-.71.66s-.59.2-.89.2c-.39,0-.7-.05-.95-.15-.25-.1-.44-.25-.59-.43-.14-.19-.24-.41-.3-.68-.06-.27-.09-.56-.09-.89v-3.24h1.44v2.97c0,.43.07.76.2.97.14.21.38.32.72.32.39,0,.68-.12.85-.35.18-.23.26-.62.26-1.15v-2.76h1.44v5.26h-1.37Z"/>
        <path class="b" d="M219.47,65.99c-.06.27-.18.52-.37.76-.19.23-.46.43-.82.59-.36.16-.84.24-1.44.24-.26,0-.52-.03-.79-.1-.27-.06-.51-.16-.73-.3-.22-.14-.4-.31-.55-.52-.15-.21-.23-.47-.25-.77h1.43c.07.27.2.46.4.56.2.11.42.16.68.16.41,0,.7-.12.89-.37.19-.24.28-.55.27-.93v-.69h-.02c-.16.28-.38.48-.67.61-.29.13-.59.2-.91.2-.39,0-.73-.07-1.02-.21-.29-.14-.52-.33-.7-.57-.18-.24-.32-.52-.4-.84-.08-.32-.13-.66-.13-1.02,0-.34.05-.67.15-.98.1-.32.24-.59.43-.83.19-.24.43-.43.71-.58.28-.14.6-.21.97-.21.35,0,.65.06.91.19.26.13.48.35.66.65h.02v-.7h1.37v4.92c0,.21-.03.45-.09.72ZM217.49,64.24c.16-.08.28-.19.39-.33.1-.14.18-.29.23-.46.05-.17.08-.35.08-.54,0-.22-.02-.42-.06-.62-.04-.19-.11-.36-.2-.51-.1-.15-.22-.27-.38-.36-.16-.09-.35-.13-.59-.13-.2,0-.38.04-.52.12-.15.08-.27.19-.37.33-.1.14-.17.3-.21.48-.04.18-.07.37-.07.57s.02.38.06.56c.04.19.1.35.19.5.09.15.21.27.36.37.15.1.34.14.56.14.2,0,.38-.04.54-.12Z"/>
        <path class="b" d="M220.73,59.54v-1.19h1.44v1.19h-1.44ZM222.17,60.35v5.26h-1.44v-5.26h1.44Z"/>
        <path class="b" d="M223.27,61.97c.02-.34.11-.62.25-.84.15-.22.34-.4.57-.54.23-.14.49-.23.78-.29.29-.06.58-.09.87-.09.26,0,.53.02.8.06.27.04.52.11.74.22.22.11.41.26.55.45.14.19.21.45.21.77v2.74c0,.24.01.46.04.68.03.22.07.38.14.49h-1.47c-.03-.08-.05-.16-.07-.25-.02-.08-.03-.17-.04-.26-.23.24-.5.4-.81.5-.31.1-.63.14-.96.14-.25,0-.48-.03-.7-.09-.22-.06-.41-.16-.57-.29-.16-.13-.29-.29-.38-.49-.09-.2-.14-.43-.14-.7,0-.3.05-.55.16-.74.11-.19.24-.35.41-.46.17-.12.36-.2.57-.26.21-.06.43-.1.65-.14.22-.03.43-.06.64-.08.21-.02.4-.05.56-.09.16-.04.29-.1.39-.18.09-.08.14-.19.13-.34,0-.16-.03-.28-.08-.37-.05-.09-.12-.16-.2-.21-.08-.05-.18-.08-.3-.1-.11-.02-.23-.03-.36-.03-.28,0-.51.06-.67.18-.16.12-.26.33-.29.61h-1.44ZM226.6,63.03c-.06.05-.14.1-.23.13-.09.03-.19.06-.29.08-.11.02-.22.04-.33.05-.12.01-.23.03-.35.05-.11.02-.22.05-.32.08s-.2.08-.28.14c-.08.06-.14.13-.19.22-.05.09-.07.2-.07.34,0,.13.02.24.07.33.05.09.11.16.19.21.08.05.18.09.29.11.11.02.22.03.34.03.29,0,.51-.05.66-.14.16-.1.27-.21.35-.34.07-.13.12-.27.14-.4.02-.14.03-.24.03-.33v-.54Z"/>
        <path class="b" d="M232.87,64.94c-.17.29-.39.49-.67.62-.28.13-.59.19-.93.19-.39,0-.74-.08-1.04-.23-.3-.15-.54-.36-.74-.62-.19-.26-.34-.56-.44-.9-.1-.34-.15-.69-.15-1.06s.05-.69.15-1.02c.1-.33.24-.62.44-.87.19-.25.44-.45.73-.61.29-.15.63-.23,1.02-.23.31,0,.61.07.89.2.28.13.5.33.67.58h.02v-2.64h1.44v7.26h-1.37v-.67h-.02ZM232.81,62.34c-.04-.2-.11-.38-.21-.53-.1-.15-.23-.28-.38-.37-.16-.1-.35-.14-.59-.14s-.44.05-.6.14c-.16.1-.29.22-.39.38-.1.16-.17.33-.21.53-.04.2-.07.41-.07.63,0,.2.02.41.07.61.05.2.12.39.23.54.11.16.24.29.4.39.16.1.35.15.57.15.24,0,.44-.05.6-.14.16-.1.29-.22.38-.38.1-.16.16-.34.2-.54.04-.2.06-.41.06-.63s-.02-.43-.06-.63Z"/>
        <path class="b" d="M235.37,61.84c.13-.34.31-.63.55-.87.24-.24.52-.43.85-.56.33-.13.7-.2,1.12-.2s.79.07,1.12.2c.34.13.62.32.86.56.24.24.42.53.55.87.13.34.19.72.19,1.14s-.06.8-.19,1.14c-.13.34-.31.63-.55.87-.24.24-.52.43-.86.55-.34.13-.71.19-1.12.19s-.79-.06-1.12-.19c-.33-.13-.62-.31-.85-.55-.24-.24-.42-.53-.55-.87-.13-.34-.19-.72-.19-1.14s.06-.8.19-1.14ZM236.68,63.6c.04.2.11.38.21.54.1.16.23.29.39.38.16.1.37.14.61.14s.45-.05.62-.14c.17-.1.3-.22.4-.38.1-.16.17-.34.21-.54.04-.2.06-.41.06-.62s-.02-.42-.06-.62c-.04-.2-.11-.38-.21-.54-.1-.16-.23-.28-.4-.38-.17-.1-.37-.15-.62-.15s-.45.05-.61.15c-.16.1-.29.23-.39.38-.1.16-.17.34-.21.54-.04.2-.06.41-.06.62s.02.42.06.62Z"/>
        <path class="b" d="M242.72,64.3c.06.11.15.2.25.27s.22.12.35.16c.13.03.27.05.41.05.1,0,.21-.01.32-.04s.21-.06.31-.11c.09-.05.17-.12.23-.2.06-.08.09-.19.09-.32,0-.22-.14-.38-.43-.49-.29-.11-.69-.22-1.21-.33-.21-.05-.42-.1-.62-.17-.2-.06-.38-.15-.53-.25-.16-.11-.28-.24-.38-.4-.1-.16-.14-.35-.14-.59,0-.34.07-.62.2-.83.13-.22.31-.39.52-.51.22-.13.46-.21.73-.26.27-.05.55-.08.83-.08s.56.03.83.08c.27.05.51.15.72.28.21.13.38.3.52.51.14.21.22.48.25.81h-1.37c-.02-.28-.13-.47-.32-.56-.19-.1-.41-.15-.67-.15-.08,0-.17,0-.26.02s-.18.03-.26.07c-.08.03-.14.08-.2.15-.05.06-.08.15-.08.26,0,.13.05.23.14.32.1.08.22.15.37.2.15.05.33.1.52.14.2.04.4.08.6.13.21.05.42.11.62.17.2.07.38.16.53.27.16.11.28.25.38.42.1.17.14.37.14.62,0,.35-.07.64-.21.87s-.32.42-.54.57c-.22.14-.48.24-.77.3-.29.06-.58.09-.88.09s-.6-.03-.9-.09c-.29-.06-.55-.16-.78-.31-.23-.14-.41-.33-.56-.57-.15-.23-.23-.53-.24-.88h1.37c0,.16.03.29.1.4Z"/>
      </g>
    </g>
  </g>
</svg>