<?xml version="1.0" encoding="utf-8"?>
<!-- Generator: Adobe Illustrator 19.0.0, SVG Export Plug-In . SVG Version: 6.00 Build 0)  -->
<svg version="1.1" id="Capa_1" xmlns="http://www.w3.org/2000/svg" xmlns:xlink="http://www.w3.org/1999/xlink" x="0px" y="0px"
	 viewBox="0 0 300 300" style="enable-background:new 0 0 300 300;" xml:space="preserve">
<style type="text/css">
	.st0{fill:#F8AA00;}
	.st1{fill:#E27400;}
</style>
<g id="XMLID_5_">
	<path id="XMLID_4_" class="st0" d="M219.6,150c0,19.2,0,38.4,0,57.6c0,9.3-5.9,16.8-14.7,19c-10.8,2.6-22.1-5.3-23.3-16.3
		c-0.2-1.4-0.2-2.9-0.2-4.3c0-37.6,0-75.2,0-112.8c0-10.3,6.6-18.4,16.3-20.1c10-1.7,20.1,5.5,21.7,15.5c0.2,1.6,0.3,3.1,0.3,4.7
		C219.6,112.2,219.6,131.1,219.6,150z"/>
	<path id="XMLID_3_" class="st1" d="M169.1,179c0,9.7,0.1,19.5,0,29.2c-0.1,12.8-13,22-25,17.9c-6.6-2.3-10-7.4-11.8-13.8
		c-0.8-2.8-1.2-5.7-1.2-8.6c0-17.8-0.1-35.5,0-53.3c0-10.6,8.8-19.4,19.1-19.4c10.6,0,18.9,8.6,18.9,19.6
		C169.1,160,169.1,169.5,169.1,179z"/>
	<path id="XMLID_2_" class="st1" d="M80.5,207.9c-1.1-8.3,6.8-19,18.8-19c10.5-0.1,19.2,8.7,19.2,19.2c0,10.6-8.7,19.2-19.2,19.1
		C88.1,227.2,79.4,217.2,80.5,207.9z"/>
</g>
</svg>
