<?xml version="1.0" encoding="utf-8"?>
<svg version="1.1" width="192px" height="192px" viewBox="0 0 192 192" xmlns="http://www.w3.org/2000/svg">
  <defs>
    <mask id="ads-perfect-mask">
      <rect width="100%" height="100%" fill="white" />
      
      <path 
        fill="white" 
        stroke="black" 
        stroke-width="6" 
        d="M180.07,127.99L121.4,26.38c-8.1-14.03-26.04-18.84-40.07-10.74c-14.03,8.1-18.84,26.04-10.74,40.07l58.67,101.61c8.1,14.03,26.04,18.83,40.07,10.74C183.36,159.96,188.16,142.02,180.07,127.99z"
      />
      
      <circle cx="37.34" cy="142.66" r="29.33" fill="white" stroke="black" stroke-width="6" />
    </mask>
  </defs>

  <g mask="url(#ads-perfect-mask)">
    <rect x="8" y="62.52" transform="matrix(0.5 -0.866 0.866 0.5 -46.2127 103.666)" fill="white" width="117.33" height="58.67"/>
    <path fill="white" d="M180.07,127.99L121.4,26.38c-8.1-14.03-26.04-18.84-40.07-10.74c-14.03,8.1-18.84,26.04-10.74,40.07l58.67,101.61c8.1,14.03,26.04,18.83,40.07,10.74C183.36,159.96,188.16,142.02,180.07,127.99z"/>
    <circle fill="white" cx="37.34" cy="142.66" r="29.33"/>
  </g>
</svg>
