<?xml version="1.0" encoding="UTF-8" standalone="no"?>
<!-- Created with Inkscape (http://www.inkscape.org/) -->

<svg
   version="1.1"
   id="svg248"
   width="853.33331"
   height="640"
   viewBox="0 0 853.33331 640"
   sodipodi:docname="pgd1irsry2quqwiyxjdphq9ofufjkkiubyhi.png"
   xmlns:inkscape="http://www.inkscape.org/namespaces/inkscape"
   xmlns:sodipodi="http://sodipodi.sourceforge.net/DTD/sodipodi-0.dtd"
   xmlns="http://www.w3.org/2000/svg"
   xmlns:svg="http://www.w3.org/2000/svg">
  <defs
     id="defs252" />
  <sodipodi:namedview
     id="namedview250"
     pagecolor="#ffffff"
     bordercolor="#000000"
     borderopacity="0.25"
     inkscape:showpageshadow="2"
     inkscape:pageopacity="0.0"
     inkscape:pagecheckerboard="0"
     inkscape:deskcolor="#d1d1d1"
     showgrid="false" />
  <g
     inkscape:groupmode="layer"
     inkscape:label="Image"
     id="g254">
    <path
       style="fill:#2c3357;fill-opacity:1;stroke-width:1.1486"
       d="m 497.05178,583.86656 c -52.22879,-7.09769 -98.98532,-28.43428 -142.64347,-65.09303 l -9.40588,-7.89791 -14.64352,4.68144 c -37.28971,11.9213 -70.81294,14.07119 -106.53562,6.83228 C 144.5139,506.31793 83.695912,447.48533 63.52016,367.31926 c -7.052081,-28.02064 -7.105272,-66.7611 -0.129421,-94.2617 10.127692,-39.92599 27.416828,-70.98977 54.557621,-98.02491 17.64797,-17.57927 31.08169,-27.42224 52.32676,-38.34014 33.84514,-17.39312 62.90142,-23.96634 100.82312,-22.8086 22.05189,0.67324 35.59804,3.01266 58.0843,10.03116 8.11698,2.5335 15.21699,4.60637 15.77779,4.60637 0.5608,0 4.25703,-2.73166 8.21386,-6.07036 22.27308,-18.79368 36.28108,-28.270591 57.7326,-39.058163 40.95984,-20.597921 75.86315,-28.962331 120.60298,-28.901911 26.07382,0.0352 40.23846,1.79291 64.44523,7.99701 87.02204,22.303431 156.48182,86.056314 185.92744,170.651394 4.8004,13.7912 10.21096,34.84369 11.98738,46.64292 1.87771,12.47198 1.6054,71.22397 -0.38227,82.47918 -9.40551,53.25844 -34.86659,103.85379 -71.3102,141.70505 -42.95114,44.61012 -97.24784,71.83289 -159.42706,79.93204 -16.59044,2.16097 -49.67984,2.14485 -65.69851,-0.0321 z m 49.38979,-56.79805 c 70.9271,-5.8114 131.82523,-44.9016 166.11938,-106.63114 11.2819,-20.30744 18.57307,-41.07122 23.05003,-65.64176 3.18864,-17.49999 3.45123,-51.49537 0.52345,-67.76739 -8.06379,-44.81693 -27.25793,-82.35567 -57.77997,-113.00256 -50.21321,-50.41861 -120.01663,-71.5263 -189.91718,-57.42861 -13.06407,2.63479 -34.76996,10.19349 -48.2412,16.79916 -11.66561,5.72028 -42.49819,25.37305 -42.49819,27.08846 0,0.46408 3.14674,3.92882 6.99274,7.69942 10.7187,10.50854 27.16658,29.8686 32.8825,38.70451 18.87987,29.18529 30.64174,64.89166 33.11423,100.52727 l 0.81685,11.77314 h -28.86296 c -22.31268,0 -28.86805,-0.32583 -28.88538,-1.43575 -0.0805,-5.15513 -3.64905,-27.20603 -5.70751,-35.26826 -14.10476,-55.24285 -60.89412,-98.84816 -116.46429,-108.53879 -13.11736,-2.28747 -39.79289,-2.32038 -52.726,-0.065 -37.0721,6.46484 -71.12195,27.35757 -93.61253,57.43995 -11.38064,15.22224 -21.61397,37.87403 -26.28867,58.19079 -3.04554,13.23628 -2.76965,49.96764 0.47309,62.98649 13.77721,55.31236 53.0318,96.09169 107.05289,111.2111 10.45655,2.92658 12.25708,3.07448 37.40316,3.07244 26.5268,-0.002 39.12797,-1.38182 40.2905,-4.41132 0.28466,-0.74182 -4.05079,-10.38965 -9.63433,-21.43964 -14.19418,-28.09069 -21.31021,-49.50886 -25.94658,-78.0952 -1.93918,-11.95632 -4.13529,-32.45536 -4.13529,-38.59979 v -3.89841 h 29.28929 29.2893 v 5.21397 c 0,17.04686 5.66276,46.93512 12.28688,64.85063 30.18864,81.64778 104.86698,134.98394 192.73819,137.65591 2.52692,0.0768 10.79684,-0.36848 18.3776,-0.98961 z"
       id="path1889" />
  </g>
</svg>
