<svg width="359" height="186" viewBox="0 0 359 186" fill="none" xmlns="http://www.w3.org/2000/svg">
<g clip-path="url(#clip0_526_9290)">
<mask id="mask0_526_9290" style="mask-type:luminance" maskUnits="userSpaceOnUse" x="0" y="38" width="137" height="147">
<path d="M0 38.9375H136.294V184.523H0V38.9375Z" fill="white"/>
</mask>
<g mask="url(#mask0_526_9290)">
<path fill-rule="evenodd" clip-rule="evenodd" d="M67.9333 153.243C47.4183 153.139 33.3573 136.366 33.4833 111.67C33.6103 86.7404 47.8463 70.1154 68.3613 70.2184C88.8733 70.3244 102.937 87.0944 102.808 111.79C102.681 136.722 88.4463 153.348 67.9333 153.243ZM67.7713 184.523C105.735 184.717 136.076 153.826 136.293 111.963C136.506 70.5684 108.134 39.1434 68.5213 38.9374C30.5573 38.7464 0.21626 69.6374 -0.000739498 111.5C-0.21574 153.6 28.1573 184.32 67.7713 184.523Z" fill="#6328CD"/>
</g>
<path fill-rule="evenodd" clip-rule="evenodd" d="M164.099 128.5H228.955C233.416 128.5 236 125.927 236 121.48V101.12C236 96.675 233.416 94.1 228.955 94.1H185.48V7.52002C185.48 3.07202 182.896 0.499023 178.43 0.499023H157.05C152.584 0.500023 150 3.07302 150 7.52002V114.46C150 123.587 154.933 128.5 164.099 128.5Z" fill="#A0E074"/>
<mask id="mask1_526_9290" style="mask-type:luminance" maskUnits="userSpaceOnUse" x="222" y="41" width="137" height="145">
<path d="M222.385 41.5625H358.461V185.501H222.385V41.5625Z" fill="white"/>
</mask>
<g mask="url(#mask1_526_9290)">
<path fill-rule="evenodd" clip-rule="evenodd" d="M251.655 182.406L290.776 137.463L328.719 182.406C332.018 186.406 336.26 186.406 340.032 183.113L355.352 169.698C359.121 166.407 359.59 162.168 356.055 158.407L313.871 111.341L352.285 68.2808C355.585 64.5158 355.351 60.5158 351.582 56.9868L337.204 44.0448C333.431 40.5148 329.192 40.7498 325.892 44.7498L290.776 85.4608L254.954 44.7498C251.655 40.9858 247.409 40.5158 243.641 44.0448L228.795 57.2218C225.025 60.7537 224.787 64.5168 228.324 68.5168L267.443 111.581L224.787 158.875C221.254 162.877 221.724 166.877 225.497 170.171L240.344 183.113C244.114 186.406 248.354 186.17 251.655 182.406Z" fill="#E38431"/>
</g>
</g>
<defs>
<clipPath id="clip0_526_9290">
<rect width="359" height="185" fill="white" transform="translate(0 0.5)"/>
</clipPath>
</defs>
</svg>
