<svg width="613" height="376" viewBox="0 0 613 376" fill="none" xmlns="http://www.w3.org/2000/svg">
<g clip-path="url(#clip0_204_1272)">
<path d="M72.04 120.2V191.88C72.04 197.5 72.04 202.42 72.74 207.69C74.15 218.58 78.36 225.26 88.9 225.26C96.63 225.26 102.6 223.15 108.93 219.99L124.39 256.89C112.44 263.92 94.87 267.78 80.47 267.78C51.66 267.78 32.33 251.97 25.65 228.07C22.84 218.93 22.14 208.04 22.14 197.15V120.2H0V78.74H22.14L29.87 37.98H72.04V78.74H119.13V120.2H72.04Z" fill="#0C29D0"/>
<path d="M156 263.57V78.74H205.9V263.57H156Z" fill="#0C29D0"/>
<path d="M286 78.74L289.87 104.04C304.63 83.31 326.77 74.52 347.15 74.52C367.53 74.52 384.75 84.01 396.35 98.77C410.76 117.39 412.87 141.29 412.87 167.64V263.57H362.97V170.1C362.97 156.4 362.62 140.93 357.35 130.39C352.78 121.25 343.65 117.39 332.75 117.39C317.99 117.39 301.83 125.82 292.69 140.93V263.57H242.79V78.74H286.01H286Z" fill="#0C29D0"/>
<path d="M482.82 78.74L520.07 188.73H520.77L558.72 78.74H612.83L508.82 348.26L464.19 331.04L493.71 252.68L428.35 78.74H482.82Z" fill="#0C29D0"/>
<path d="M205.87 78.74H156.04V263.57H205.87V78.74Z" fill="#0C29D0"/>
<path d="M205.87 0H156.04V42.52H205.87V0Z" fill="#0C29D0"/>
<path d="M162.77 303.47V327.03C165.44 323.17 170.13 321.15 174.59 321.15C185.29 321.15 193.17 329.78 193.17 340.7C193.17 350.52 185.81 360.11 174.43 360.11C170.05 360.11 165.73 358.25 162.76 355.21V359.23H156V303.47H162.77ZM162.77 348.22C165.3 351.86 169.69 353.87 173.55 353.87C182.18 353.87 186.26 346.95 186.26 340.56C186.26 333.64 181.43 327.4 173.69 327.4C169.67 327.4 164.62 329.86 162.76 334.46V348.21L162.77 348.22Z" fill="#0C29D0"/>
<path d="M204.26 322.06L213.93 350.23H214.08L223.97 322.06H231.33L210.44 375.96L204.49 373.65L210.37 358.11L196.76 322.06H204.27H204.26Z" fill="#0C29D0"/>
<path d="M317.4 294.12H305.11V359.11H317.4V294.12Z" fill="#0C29D0"/>
<path d="M274.27 313.53C261.39 313.53 250.96 323.97 250.96 336.84C250.96 349.71 261.4 360.15 274.27 360.15C287.14 360.15 297.58 349.71 297.58 336.84C297.58 323.97 287.15 313.53 274.27 313.53ZM274.27 348.29C267.95 348.29 262.83 343.17 262.83 336.85C262.83 330.53 267.95 325.41 274.27 325.41C280.59 325.41 285.71 330.53 285.71 336.85C285.71 343.17 280.59 348.29 274.27 348.29Z" fill="#0C29D0"/>
<path d="M365.49 331.47C361.68 329.91 358.31 328.44 358.31 325.58C358.31 323.41 360.39 322.12 362.73 322.12C366.19 322.12 369.4 323.86 371.73 325.93L376.82 316.76C371.68 313.67 368.79 312.5 362.73 312.5C354.43 312.5 346.46 317.18 346.46 326.45C346.46 334.42 352.43 337.54 357.88 339.88C362.38 341.87 366.53 343.26 366.53 346.47C366.53 349.24 363.24 350.46 360.73 350.46C356.31 350.46 353.46 348.47 350 345.09L345.1 353.79C350.24 357.9 354.24 360.17 361.34 360.17C370.17 360.17 378.82 355.57 378.82 345.53C378.81 336.85 371.36 333.91 365.48 331.49L365.49 331.47Z" fill="#0C29D0"/>
<path d="M338.74 313.53H326.45V359.11H338.74V313.53Z" fill="#0C29D0"/>
<path d="M409.05 348.36C407.49 349.14 406.02 349.66 404.12 349.66C401.52 349.66 400.49 348.01 400.14 345.33C399.97 344.03 399.97 342.82 399.97 341.43V323.75H411.57V313.52H399.97V303.47H389.58L387.68 313.52H382.23V323.75H387.68V342.73C387.68 345.42 387.85 348.1 388.55 350.35C390.2 356.24 394.95 360.14 402.05 360.14C405.6 360.14 409.92 359.19 412.87 357.45L409.06 348.36H409.05Z" fill="#0C29D0"/>
<path d="M338.74 294.11H326.45V304.59H338.74V294.11Z" fill="#0C29D0"/>
</g>
<defs>
<clipPath id="clip0_204_1272">
<rect width="612.84" height="375.96" fill="white"/>
</clipPath>
</defs>
</svg>
