<svg xmlns="http://www.w3.org/2000/svg" viewBox="0 0 10240 10240" width="1024" height="1024">
  <g fill="#18F5F9" stroke="#18F5F9" stroke-width="10">
    <path d="M5045 8623 c-563 -14 -1208 -156 -1720 -378 -698 -303 -1296 -785 -1676 -1352 -266 -396 -454 -931 -500 -1426 -17 -186 -7 -563 21 -742 91 -594 323 -1085 741 -1570 427 -495 1108 -907 1839 -1114 995 -281 2070 -262 3017 54 974 325 1716 967 2109 1825 187 408 269 800 269 1285 0 232 -5 295 -41 515 -59 359 -201 749 -387 1060 -242 404 -675 840 -1132 1136 -597 388 -1260 620 -1982 694 -179 19 -268 21 -558 13z m310 -143 l0 -35 -130 3 c-172 5 -480 -14 -646 -38 -74 -11 -138 -20 -142 -20 -5 0 -7 14 -5 32 4 38 4 38 218 63 194 23 363 32 550 31 l155 -1 0 -35z m345 5 c47 -8 146 -24 220 -36 74 -11 171 -29 215 -39 44 -10 97 -22 117 -25 43 -8 56 -20 64 -63 8 -39 7 -39 -116 -6 -202 54 -513 109 -682 121 l-68 5 0 33 0 33 83 -5 c45 -2 120 -11 167 -18z m-1362 -77 c-3 -33 -3 -33 -98 -55 -148 -35 -272 -69 -433 -120 -156 -49 -178 -50 -185 -6 -3 17 11 25 85 52 139 49 320 96 598 154 11 3 24 5 28 6 5 0 7 -14 5 -31z m995 -65 c2 -5 2 -24 0 -44 l-5 -37 -296 -5 c-194 -3 -334 -11 -402 -21 -58 -9 -133 -19 -167 -22 l-63 -7 0 46 c0 40 3 47 23 51 24 6 189 23 337 35 124 11 568 13 573 4z m332 -24 c209 -24 592 -93 662 -120 20 -7 23 -16 23 -65 l0 -56 -37 4 c-21 3 -114 26 -208 52 -204 57 -367 90 -532 107 l-123 13 0 44 0 43 63 -6 c34 -3 103 -11 152 -16z m888 -25 c78 -26 185 -63 237 -84 119 -48 340 -151 340 -159 0 -12 -57 -41 -79 -41 -12 0 -57 18 -101 40 -44 22 -115 54 -157 71 -43 17 -83 35 -89 40 -6 5 -42 18 -80 30 -38 11 -82 27 -99 34 -16 7 -47 16 -68 20 -26 4 -40 13 -46 28 -20 52 -22 67 -11 67 6 0 75 -21 153 -46z m-2235 -56 l-3 -52 -155 -42 c-85 -24 -227 -68 -315 -100 -164 -58 -230 -73 -246 -57 -5 5 -7 34 -3 66 l7 57 141 46 c106 35 506 129 569 133 4 1 7 -23 5 -51z m-801 -63 c-14 -39 -15 -40 -163 -96 -82 -31 -202 -80 -267 -109 -108 -48 -147 -56 -147 -31 0 20 574 290 587 277 2 -1 -3 -20 -10 -41z m3048 -44 c190 -61 415 -150 415 -164 0 -3 -25 -25 -56 -51 -67 -55 -90 -57 -177 -17 -34 15 -114 50 -177 76 -63 27 -118 51 -121 54 -10 9 -21 141 -12 141 4 0 62 -18 128 -39z m-1259 0 c5 -6 8 -41 6 -79 l-4 -69 -216 -7 c-119 -3 -275 -13 -347 -22 -203 -24 -299 -28 -323 -15 -19 10 -22 20 -22 76 0 52 3 65 18 69 20 6 364 44 442 49 134 8 437 6 446 -2z m347 -27 c166 -19 362 -52 555 -96 l142 -31 0 -99 0 -98 -28 0 c-16 0 -66 13 -113 29 -177 59 -602 151 -702 151 -52 0 -67 24 -67 102 l0 68 38 -5 c20 -3 99 -12 175 -21z m-2167 -76 c-3 -18 -8 -54 -11 -80 -4 -30 -12 -49 -23 -53 -9 -4 -65 -24 -123 -45 -59 -21 -191 -73 -293 -116 -148 -61 -189 -75 -199 -65 -9 10 -3 20 28 47 124 107 540 342 608 344 15 0 17 -6 13 -32z m 829 -10 c4 -24 5 -63 3 -87 -3 -42 -5 -45 -38 -53 -103 -26 -323 -96 -464 -149 -87 -33 -169 -59 -180 -57 -25 4 -35 46 -35 155 l-1 71 69 21 c180 55 548 139 613 140 24 1 27 -3 33 -41z m2914 -44 c15 -34 10 -38 -33 -30 -45 9 -64 30 -39 45 32 18 59 13 72 -15z m204 -85 c43 -27 82 -49 87 -49 4 0 26 -15 48 -32 22 -18 79 -62 128 -98 70 -51 84 -66 68 -68 -26 -4 -180 79 -234 125 -21 18 -49 33 -62 33 -12 0 -48 13 -78 28 -54 27 -75 54 -95 120 l-7 23 34 -17 c18 -9 68 -39 111 -65z m-873 20 c52 -17 131 -48 175 -68 44 -21 109 -51 145 -67 119 -52 390 -228 390 -252 0 -13 -129 -102 -148 -102 -11 0 -89 33 -173 73 -85 40 -232 109 -326 152 l-173 79 0 108 c0 59 3 108 7 108 5 0 51 -14 103 -31z m620 -34 c120 -62 124 -67 155 -199 22 -90 20 -114 -9 -122 -20 -5 -43 10 -129 79 -101 82 -209 157 -225 157 -11 0 -57 49 -51 54 24 22 126 86 136 86 8 0 63 -25 123 -55z m-4434 -70 c-9 -14 -21 -25 -26 -25 -5 0 -7 -7 -3 -15 7 -19 -33 -133 -56 -159 -43 -49 -462 -346 -489 -346 -5 0 -15 6 -21 14 -10 12 6 33 91 118 57 57 150 139 207 183 58 44 149 122 204 173 95 90 128 110 93 57z m738 -156 l5 -47 -82 -31 c-376 -141 -411 -153 -459 -146 -39 5 -48 3 -48 -10 0 -8 8 -15 17 -15 27 0 5 -13 -89 -53 -98 -42 -101 -42 -117 -23 -9 11 -10 20 -1 36 8 16 8 20 -2 18 -16 -4 -22 33 -13 89 7 49 27 64 54 39 10 -9 21 -13 24 -9 11 10 8 43 -3 43 -25 0 -6 22 39 45 68 34 252 107 257 102 4 -4 -79 -72 -158 -130 -38 -27 -48 -50 -28 -62 6 -4 19 -1 29 7 143 105 409 271 503 312 l53 24 7 -72 c4 -39 9 -92 12 -117z m1811 54 c-4 -71 -8 -134 -10 -140 -3 -10 -55 -13 -212 -13 -121 0 -263 -7 -338 -15 -243 -29 -259 -29 -274 -11 -12 14 -47 243 -39 252 2 2 36 8 75 14 153 24 357 38 576 39 l228 1 -6 -127z m385 91 c194 -26 629 -113 649 -130 2 -2 -4 -64 -14 -139 l-17 -135 -32 0 c-17 0 -87 14 -156 30 -162 40 -442 95 -555 110 -125 16 -125 16 -125 160 0 64 3 120 7 124 8 8 63 3 243 -20z m1779 -49 c95 -47 110 -59 86 -69 -33 -12 -15 -28 24 -21 48 8 55 4 264 -128 150 -95 190 -129 170 -147 -4 -4 -33 -11 -63 -14 l-56 -7 -93 81 c-51 44 -105 88 -119 98 -15 9 -35 25 -44 35 -17 16 -38 23 -38 12 0 -2 39 -42 86 -87 74 -71 83 -83 65 -86 -12 -2 -27 1 -34 6 -7 5 -66 38 -132 72 -138 71 -150 79 -136 93 10 10 -9 37 -28 37 -10 0 -31 60 -31 89 0 11 3 11 15 1 27 -22 18 14 -10 40 -23 22 -32 40 -20 40 3 0 45 -20 94 -45z m-3136 8 c3 -5 8 -69 11 -143 l7 -135 -298 -73 c-302 -74 -353 -82 -370 -59 -9 10 -27 96 -47 218 l-6 36 82 26 c114 36 225 63 413 102 168 36 201 40 208 28z m2260 -173 c114 -39 331 -131 449 -191 50 -25 59 -33 45 -41 -21 -12 -22 -24 -1 -32 10 -4 25 1 35 10 19 17 45 12 134 -27 22 -9 54 -20 72 -24 47 -10 57 -27 45 -77 -6 -24 -14 -71 -18 -105 l-7 -63 -64 0 c-49 0 -78 7 -126 29 -34 16 -87 39 -117 52 -80 34 -86 41 -56 70 30 28 32 39 9 39 -9 0 -28 -14 -42 -30 l-26 -31 -192 70 c-106 39 -210 75 -231 81 -72 19 -76 31 -62 172 7 68 14 126 17 131 7 11 13 10 136 -33z m-3078 -67 c4 -21 15 -83 26 -137 10 -55 18 -100 17 -102 -2 -1 -55 -16 -118 -34 -63 -17 -135 -38 -159 -46 -25 -8 -55 -14 -67 -14 -13 0 -25 -4 -29 -9 -3 -5 -36 -19 -73 -32 -37 -12 -125 -44 -196 -71 -139 -52 -166 -55 -144 -15 25 47 283 252 427 341 68 41 290 156 303 156 4 0 10 -17 13 -37z m4087 -79 c87 -47 158 -87 158 -89 0 -6 -90 -45 -103 -45 -6 0 -31 17 -56 38 -25 21 -76 60 -113 86 -52 36 -68 53 -68 72 0 13 5 24 12 24 6 0 83 -39 170 -86z m-243 30 c16 -21 21 -41 21 -90 0 -57 -2 -64 -19 -64 -21 0 -171 65 -171 74 0 9 124 105 137 106 6 0 21 -12 32 -26z m-4709 -57 l0 -73 -82 -81 c-59 -56 -105 -91 -158 -118 -41 -21 -103 -55 -138 -76 -35 -22 -72 -39 -82 -39 -32 0 -33 21 -2 48 16 15 54 59 84 97 101 128 317 315 365 315 9 0 13 -21 13 -73z m2640 -45 l0 -99 -202 -6 c-112 -3 -279 -13 -373 -23 -224 -21 -219 -23 -232 93 -6 48 -7 91 -4 95 14 15 333 36 564 37 l247 1 0 -98z m325 68 c175 -19 650 -100 675 -115 4 -2 0 -48 -9 -102 l-16 -98 -32 -3 c-17 -2 -71 6 -120 18 -78 19 -295 66 -348 76 -102 19 -217 34 -256 34 -30 0 -54 6 -68 18 -19 16 -20 24 -14 105 l6 88 41 -6 c23 -2 86 -10 141 -15z m-1260 -32 c11 -33 21 -203 12 -209 -5 -4 -37 -12 -71 -19 -34 -6 -163 -36 -288 -66 -172 -42 -231 -53 -246 -45 -13 7 -25 33 -36 83 -10 40 -20 81 -22 90 -3 10 3 21 14 27 39 21 529 139 625 150 4 1 10 -5 12 -11z m3148 -35 c34 -26 72 -56 84 -67 l22 -19 -34 -18 c-46 -25 -72 -24 -112 4 -31 21 -33 25 -33 85 0 34 3 62 6 62 3 0 33 -21 67 -47z m-4519 -32 c4 -5 -20 -31 -51 -58 -32 -26 -82 -69 -111 -95 -54 -48 -85 -60 -95 -34 -3 7 -8 33 -12 58 l-7 44 109 47 c105 45 156 57 167 38z m5070 -32 c8 -44 8 -69 -3 -69 -16 0 -111 82 -105 91 3 5 27 9 53 9 46 0 49 -1 55 -31z m-123 -50 c86 -59 129 -97 129 -116 0 -7 -7 -13 -15 -13 -8 0 -15 -9 -15 -20 0 -14 5 -18 16 -13 14 5 15 -1 9 -58 -8 -74 -10 -79 -33 -79 -21 0 -126 103 -116 113 4 4 0 9 -9 13 -16 6 -179 168 -185 183 -3 9 90 39 124 40 11 1 54 -22 95 -50z m-1241 -59 c58 -21 127 -47 154 -59 l49 -22 -26 -27 c-15 -16 -27 -36 -27 -45 0 -26 39 -21 49 6 19 49 30 50 152 6 160 -56 269 -109 268 -128 0 -9 -15 -61 -32 -116 -27 -84 -36 -101 -55 -103 -13 -2 -105 38 -226 99 -178 89 -203 104 -190 116 8 8 12 19 9 24 -10 15 -45 10 -45 -6 0 -23 -19 -19 -153 29 -67 24 -141 50 -164 57 -71 20 -73 28 -53 149 10 58 18 106 19 107 2 3 169 -50 271 -87z m1606 -45 c74 -72 110 -115 128 -155 l26 -55 -26 -3 c-19 -3 -38 8 -73 40 -26 24 -77 67 -114 97 -69 56 -91 92 -103 172 l-7 42 33 -19 c19 -10 80 -64 136 -119z m-6064 53 c-93 -120 -115 -135 -157 -104 -16 12 -17 16 -6 30 11 13 199 136 208 136 1 0 -19 -28 -45 -62z m5478 -8 l55 -49 -32 -1 c-29 0 -106 34 -140 62 -12 10 -11 14 9 24 37 21 50 16 108 -36z m-5036 -68 l16 -93 -41 -49 c-23 -27 -71 -67 -108 -89 -36 -22 -91 -58 -121 -81 -49 -37 -60 -41 -98 -37 -24 3 -46 7 -49 10 -7 7 55 120 114 208 75 113 110 147 192 188 42 22 77 38 78 37 0 0 8 -43 17 -94z m912 61 c3 -16 12 -53 20 -84 24 -99 35 -89 -163 -155 -123 -40 -228 -83 -343 -141 -102 -51 -177 -83 -197 -83 -29 0 -33 4 -51 53 -57 154 -66 187 -57 195 14 13 241 103 343 137 77 25 85 26 101 11 24 -22 34 -20 26 4 -8 25 13 34 132 55 48 8 102 19 118 24 52 16 64 13 71 -16z m4072 -68 c70 -35 154 -80 187 -100 71 -43 175 -142 175 -167 0 -10 -14 -61 -30 -113 l-31 -95 -49 0 c-41 0 -55 6 -97 39 -26 21 -59 50 -72 65 -14 14 -34 26 -45 26 -12 0 -53 20 -91 44 -39 25 -88 55 -110 67 -22 11 -57 35 -78 52 -42 33 -42 24 -16 156 9 43 13 51 21 38 14 -27 28 -20 28 14 0 17 4 28 10 24 5 -3 18 -1 27 4 29 17 39 14 171 -54z m-2485 48 l107 -6 0 -86 c0 -47 -3 -103 -6 -123 l-7 -38 -131 0 c-72 -1 -178 -5 -236 -10 -197 -18 -347 -23 -353 -13 -7 11 -37 200 -37 232 0 16 10 20 62 26 159 19 453 28 601 18z m377 -28 c148 -13 603 -88 681 -111 15 -4 14 -16 -7 -122 -37 -181 -30 -165 -70 -159 -19 3 -49 13 -66 21 -17 9 -42 16 -55 16 -13 0 -75 13 -137 29 -62 16 -189 42 -282 56 -109 17 -175 32 -186 42 -20 18 -23 72 -12 182 l7 61 31 -4 c17 -3 60 -8 96 -11z m-1166 -27 c7 -24 37 -261 33 -264 -2 -2 -57 -15 -123 -28 -65 -14 -174 -38 -241 -55 -122 -31 -177 -37 -200 -23 -17 11 -68 191 -57 202 32 31 309 122 483 160 106 23 101 23 105 8z m-2000 -40 c-4 -7 -36 -59 -71 -116 -36 -57 -71 -119 -79 -138 l-14 -34 -82 0 c-91 0 -126 16 -108 51 15 27 119 104 244 180 126 76 120 73 110 57z m5821 -98 c49 -74 107 -178 130 -232 l15 -38 -32 0 c-28 1 -49 16 -135 99 l-102 98 16 92 17 91 24 -22 c13 -13 43 -52 67 -88z m-6239 -17 c-4 -49 -10 -95 -12 -103 -8 -23 -162 -152 -174 -145 -17 10 -12 28 39 131 48 99 122 204 142 204 8 0 9 -27 5 -87z m4570 -17 c76 -24 162 -53 189 -64 191 -76 485 -227 485 -250 0 -15 -62 -177 -84 -221 -23 -44 -53 -40 -160 22 -77 45 -199 106 -296 146 -14 6 -32 15 -40 20 -8 4 -74 27 -146 50 -72 23 -139 50 -148 60 -17 18 -16 25 4 128 11 59 23 118 26 131 2 12 10 22 17 22 8 0 76 -20 153 -44z m1870 -82 c71 -69 74 -75 74 -118 l0 -46 -40 0 c-38 0 -41 2 -57 43 -9 23 -38 84 -65 135 -26 51 -48 95 -48 98 0 12 66 -42 136 -112z m-4761 75 c4 -12 1 -27 -7 -37 -14 -17 -14 -52 1 -52 4 0 12 5 18 11 9 9 14 0 23 -32 6 -24 18 -66 26 -93 8 -28 11 -53 7 -57 -5 -3 -33 -15 -63 -24 -38 -13 -55 -15 -58 -6 -4 12 -42 15 -42 3 0 -4 5 -13 10 -18 7 -7 -15 -21 -67 -44 -43 -18 -114 -53 -159 -77 -44 -24 -86 -43 -92 -43 -22 0 -12 27 21 56 l32 29 -30 3 c-18 2 -33 -2 -40 -12 -105 -154 -106 -156 -146 -156 -36 0 -40 3 -73 63 -59 105 -91 187 -80 204 31 49 426 230 609 279 102 28 102 28 110 3z m-926 -31 c18 -49 81 -248 81 -257 0 -25 -96 -11 -166 23 -38 19 -94 42 -124 52 -71 22 -79 30 -55 53 28 27 228 151 243 151 7 0 16 -10 21 -22z m4689 -17 c15 -10 79 -49 142 -86 168 -99 280 -181 280 -205 0 -4 -19 -17 -42 -30 -24 -12 -80 -47 -125 -77 l-82 -53 -59 42 c-33 24 -96 69 -141 101 -44 32 -81 61 -81 65 -1 22 66 262 73 262 4 0 20 -8 35 -19z m1192 -93 c33 -50 60 -95 60 -100 0 -4 -11 -8 -25 -8 -39 0 -93 88 -109 178 -8 47 5 35 74 -70z m-3335 -78 l0 -125 -205 -6 c-113 -3 -256 -12 -318 -19 -142 -18 -143 -17 -166 121 -21 129 -22 127 17 134 83 14 251 22 452 21 l220 -1 0 -125z m375 94 c173 -23 507 -100 532 -123 4 -4 -7 -66 -24 -139 -24 -99 -36 -132 -47 -132 -9 0 -50 12 -91 26 -175 60 -452 124 -536 124 -67 0 -74 10 -74 108 0 48 3 104 7 125 l6 38 56 -6 c31 -3 108 -13 171 -21z m2550 -64 l55 -50 -63 0 -62 0 -25 57 c-14 31 -23 63 -20 71 6 16 29 0 115 -78z m-6482 -42 c-40 -114 -77 -178 -104 -178 -24 0 -16 35 26 117 37 70 104 173 114 173 2 0 -14 -51 -36 -112z m2747 -52 c14 -77 24 -140 23 -141 -2 -2 -32 -12 -68 -23 -36 -12 -136 -46 -223 -76 -164 -58 -202 -65 -230 -43 -9 6 -28 55 -42 107 -14 52 -28 103 -31 113 -4 11 0 17 10 17 9 0 16 9 16 20 0 17 7 20 43 20 40 0 111 22 272 85 66 26 197 65 202 61 2 -1 14 -64 28 -140z m-2558 -63 c-48 -178 -55 -212 -66 -287 -11 -79 -52 -138 -115 -167 -64 -29 -76 -26 -76 20 0 -58 18 184 41 289 21 92 22 95 88 164 79 85 155 143 159 123 2 -7 -12 -71 -31 -142z m266 75 c-32 -97 -46 -118 -83 -118 -37 0 -46 19 -58 120 l-8 70 86 0 86 0 -23 -72z m288 26 c49 -15 247 -99 259 -111 3 -2 -2 -8 -11 -13 -25 -14 -219 -169 -291 -232 l-68 -60 -96 9 c-73 6 -100 12 -107 25 -17 27 18 216 46 246 39 43 181 152 197 152 9 0 41 -7 71 -16z m5893 -100 c33 -37 65 -74 70 -82 22 -38 25 -89 10 -174 l-16 -88 -57 0 c-58 0 -92 15 -111 49 -5 10 -19 62 -30 115 -18 83 -40 158 -65 218 -8 20 9 25 84 27 l54 1 61 -66z m-6350 -50 l18 -96 -28 -29 c-33 -35 -74 -39 -74 -9 0 31 51 230 59 230 4 0 15 -43 25 -96z m4394 66 c39 -16 95 -35 124 -41 76 -16 156 -44 266 -93 105 -46 280 -150 288 -171 3 -7 -22 -67 -55 -134 -53 -105 -64 -121 -85 -121 -14 0 -114 44 -223 98 -109 53 -250 119 -313 146 -63 26 -124 54 -136 61 l-21 13 35 136 c19 75 38 136 42 136 5 0 40 -13 78 -30z m1730 -27 c11 -32 27 -82 36 -110 15 -53 15 -53 -7 -53 -15 0 -48 26 -94 73 l-72 72 14 32 c13 30 28 38 81 42 17 1 25 -10 42 -56z m452 17 c5 -10 23 -72 39 -137 25 -104 27 -118 13 -122 -9 -2 -18 2 -20 7 -2 6 -25 39 -52 74 l-48 63 11 77 c10 69 13 76 29 67 9 -5 22 -18 28 -29z m-4820 -15 c11 -38 10 -50 0 -70 -14 -27 -8 -40 18 -40 11 0 25 -23 44 -70 15 -38 27 -77 28 -86 0 -15 -58 -49 -84 -49 -15 0 -56 108 -56 147 0 16 -6 23 -20 23 -31 0 -33 -21 -11 -88 37 -109 47 -98 -174 -206 -107 -53 -204 -96 -215 -96 -15 0 -41 31 -101 122 -44 67 -78 129 -77 138 4 18 163 124 268 179 109 56 213 96 218 82 2 -6 15 -11 28 -11 21 0 23 3 14 20 -9 17 -5 21 37 34 68 21 69 21 83 -29z m3715 -118 c85 -62 265 -208 283 -230 22 -26 -30 -110 -106 -174 -86 -74 -98 -72 -209 25 -48 42 -130 110 -180 150 -51 41 -93 76 -93 78 0 7 88 211 107 247 l14 27 57 -36 c31 -20 89 -59 127 -87z m1253 6 c58 -75 74 -126 80 -250 4 -106 4 -113 -14 -113 -45 1 -65 41 -93 190 -12 63 -31 149 -42 192 -10 42 -19 79 -19 83 0 7 40 -40 88 -102z m-5881 55 c17 -18 54 -79 82 -135 l51 -103 -87 -62 c-177 -128 -320 -238 -398 -307 -44 -39 -88 -71 -97 -71 -34 0 -100 73 -140 155 l-39 80 70 68 c77 75 81 76 189 41 57 -19 72 -18 72 5 0 24 -7 28 -51 36 -19 3 -43 15 -54 26 l-20 20 50 46 c124 113 288 233 320 233 11 0 35 -15 52 -32z m5023 -33 c12 -43 11 -49 -20 -120 -45 -103 -53 -102 -183 7 l-32 28 25 20 c27 21 181 110 191 110 4 0 12 -20 19 -45z m-2602 -122 l3 -123 -118 0 c-65 0 -196 -5 -291 -12 -154 -11 -174 -10 -188 4 -16 16 -53 202 -42 213 20 20 287 43 483 41 l150 -1 3 -122z m2817 35 c54 -51 104 -107 112 -125 16 -41 16 -43 -2 -43 -8 0 -15 -7 -15 -15 0 -8 8 -15 19 -15 16 0 19 -11 24 -82 4 -46 7 -118 7 -160 0 -122 -14 -116 -229 104 l-143 147 47 118 c26 65 51 128 56 141 5 12 13 22 18 22 5 0 53 -42 106 -92z m-2454 46 c84 -14 207 -42 273 -61 67 -20 133 -38 148 -41 46 -7 48 -20 15 -129 -24 -81 -34 -103 -48 -103 -19 0 -173 36 -294 69 -38 11 -121 25 -183 32 -154 16 -153 15 -145 152 l6 107 37 0 c21 0 107 -12 191 -26z m-1101 -139 c13 -64 20 -118 18 -121 -3 -2 -64 -20 -135 -39 -71 -19 -165 -45 -209 -59 -43 -14 -89 -26 -100 -26 -34 0 -63 31 -83 90 -17 47 -18 57 -6 70 40 44 405 197 476 199 13 1 21 -23 39 -114z m4066 -26 c47 -69 68 -109 70 -136 2 -21 8 -69 14 -108 5 -38 9 -109 10 -157 0 -77 -2 -88 -17 -88 -27 1 -52 26 -116 115 -57 79 -57 81 -53 138 4 46 2 57 -11 57 -9 0 -13 -6 -9 -15 7 -20 -3 -45 -20 -45 -7 0 -19 9 -27 21 -13 18 -13 27 0 72 8 29 18 70 23 92 4 22 8 32 9 23 1 -11 6 -15 16 -12 12 5 15 24 15 86 0 98 2 97 96 -43z m-6540 -5 c-7 -18 -90 -19 -104 -1 -8 9 1 25 35 61 l47 48 14 -47 c7 -26 11 -54 8 -61z m4243 -29 c16 -8 91 -35 168 -60 118 -39 401 -172 437 -206 11 -10 -102 -179 -119 -179 -7 0 -43 15 -81 33 -38 19 -86 42 -107 52 -22 10 -41 24 -43 32 -12 40 -17 47 -21 36 -9 -24 -68 -13 -178 30 -61 24 -131 52 -157 61 -27 10 -48 21 -48 25 0 6 48 154 65 198 5 14 28 8 84 -22z m909 -44 c53 -35 185 -141 284 -225 35 -30 39 -38 28 -51 -10 -12 -10 -18 0 -30 9 -11 16 -13 24 -5 15 15 36 12 36 -5 0 -16 -130 -195 -141 -195 -3 0 -18 9 -33 21 -20 16 -25 26 -20 45 7 27 2 29 -25 12 -16 -10 -29 -5 -84 31 -35 23 -73 51 -82 61 -10 11 -22 20 -27 20 -17 0 -147 95 -148 108 0 15 118 252 126 252 3 0 31 -17 62 -39z m-4955 22 l38 -6 -27 -28 c-36 -37 -76 -39 -92 -4 -7 14 -12 30 -12 35 0 11 38 13 93 3z m794 -55 c23 -35 61 -95 87 -135 l45 -72 -47 -34 c-26 -19 -83 -58 -126 -87 -78 -52 -353 -276 -390 -319 -12 -13 -31 -21 -53 -21 -29 0 -39 7 -83 68 -27 37 -61 89 -76 115 l-26 49 91 89 c82 80 93 88 111 77 25 -16 50 3 32 25 -9 11 -6 19 16 39 62 57 355 268 373 268 3 0 24 -28 46 -62z m-958 -5 c24 -122 24 -123 -101 -250 -78 -78 -118 -113 -130 -110 -23 6 -44 -20 -40 -50 5 -36 -37 -93 -69 -93 -38 0 -56 27 -79 115 -31 120 -28 147 24 219 68 94 125 154 126 134 0 -11 8 -18 20 -18 16 0 20 7 20 30 0 35 11 41 117 64 103 22 99 23 112 -41z m1794 43 c3 -8 -1 -20 -9 -26 -15 -13 -20 -50 -6 -50 4 0 13 5 20 12 15 15 15 14 40 -52 11 -30 23 -62 27 -71 4 -11 -5 -20 -37 -34 -24 -9 -131 -60 -239 -111 -108 -52 -205 -94 -216 -94 -29 0 -143 154 -126 170 23 22 273 160 383 212 131 61 154 67 163 44z m4473 -134 c4 -12 -6 -57 -22 -102 -21 -61 -32 -80 -46 -80 -15 0 -18 9 -18 58 0 33 -3 101 -6 153 l-5 94 46 -50 c25 -27 48 -60 51 -73z m574 -27 c23 -66 50 -160 61 -210 40 -192 17 -193 -74 -2 l-67 142 6 85 c3 47 8 96 10 110 7 33 13 23 64 -125z m-7409 -30 c6 -55 14 -116 16 -135 6 -47 -78 -200 -110 -200 -19 0 -20 4 -14 143 6 145 22 226 59 306 l21 46 8 -30 c4 -16 13 -75 20 -130z m3747 69 l3 -51 -173 -6 c-95 -4 -221 -10 -279 -13 -66 -4 -108 -3 -112 3 -4 5 -9 28 -13 51 l-6 40 58 8 c131 16 226 21 369 20 l150 -1 3 -51z m2608 35 c51 -31 267 -263 249 -267 -30 -7 -16 -32 17 -32 34 0 78 -33 78 -59 0 -8 -25 -59 -56 -113 -54 -94 -57 -98 -91 -98 -30 0 -50 15 -158 112 -68 62 -119 116 -113 119 11 7 -28 39 -47 39 -6 0 -24 13 -39 29 l-28 29 52 99 c65 121 90 163 97 163 3 0 21 -9 39 -21z m-2304 -18 c133 -23 354 -75 396 -93 l30 -13 -15 -39 c-16 -37 -17 -38 -57 -33 -23 3 -79 15 -126 26 -47 12 -155 32 -240 47 -85 14 -160 30 -167 36 -7 6 -13 28 -13 49 0 39 0 39 39 39 21 0 90 -9 153 -19z m-979 -68 c8 -27 13 -51 11 -55 -2 -3 -46 -16 -97 -28 -50 -11 -149 -39 -219 -61 -69 -21 -133 -39 -142 -39 -14 0 -46 47 -46 69 0 20 390 154 467 160 7 1 19 -20 26 -46z m4172 -23 c31 -49 31 -50 1 -50 -18 0 -25 7 -30 31 -14 70 -6 75 29 19z m-328 -32 c27 -26 33 -40 33 -74 0 -50 21 -74 46 -53 18 15 25 8 71 -69 30 -50 24 -63 -18 -39 -17 9 -37 17 -45 17 -13 0 -18 11 -15 37 2 16 -40 28 -49 13 -8 -13 -74 1 -102 22 -15 12 -14 20 10 95 15 45 29 83 32 83 2 0 19 -14 37 -32z m-6243 -135 c36 -70 66 -132 66 -138 0 -17 -66 -77 -81 -75 -28 4 -39 0 -39 -15 0 -8 5 -15 10 -15 22 0 7 -29 -51 -105 -34 -44 -84 -117 -112 -163 -28 -46 -55 -86 -60 -89 -5 -3 -17 3 -27 13 -25 26 -150 247 -150 266 0 20 88 145 176 248 78 92 176 191 173 175 -3 -21 1 -35 12 -35 6 0 10 10 9 23 -5 60 1 53 74 -90z m4013 92 c43 -13 116 -33 163 -44 47 -11 110 -29 140 -40 97 -34 230 -100 230 -115 0 -19 -79 -106 -96 -106 -8 0 -50 18 -92 39 -90 45 -281 126 -395 166 -44 16 -81 34 -84 41 -7 19 24 84 41 84 8 0 50 -11 93 -25z m-937 -30 l0 -35 -137 0 c-76 -1 -190 -7 -253 -15 -112 -13 -115 -13 -132 7 -21 24 -23 47 -5 53 30 12 196 22 355 24 l172 1 0 -35z m315 5 c163 -29 310 -61 326 -71 12 -7 11 -11 -3 -26 -16 -15 -25 -16 -104 -5 -47 7 -93 17 -102 22 -16 8 -141 26 -265 37 -59 6 -75 18 -63 48 8 21 76 19 211 -5z m1493 -39 c107 -64 222 -150 222 -165 0 -7 -5 -17 -12 -24 -17 -17 18 -28 37 -12 12 10 21 7 50 -14 19 -15 35 -32 35 -37 0 -6 -24 -36 -54 -67 l-55 -57 -30 29 c-17 17 -31 38 -31 48 0 12 -8 18 -25 18 -23 0 -214 118 -280 173 -26 22 -28 27 -18 50 20 42 63 107 72 107 4 0 44 -22 89 -49z m-2435 -8 c6 -33 1 -43 -21 -43 -26 0 -237 -56 -321 -85 -41 -14 -80 -25 -86 -25 -15 0 -38 51 -28 60 8 8 224 75 333 104 30 8 69 15 86 15 27 1 32 -3 37 -26z m-3287 -391 c-16 -43 -23 -52 -40 -50 -19 3 -21 11 -24 81 -3 87 17 211 51 314 l22 68 5 -180 c6 -163 4 -185 -14 -233z m1928 342 c31 -36 56 -69 56 -73 0 -5 -31 -34 -69 -65 -94 -76 -112 -75 -202 5 -38 34 -66 65 -63 70 3 5 40 27 82 49 42 21 91 48 107 59 17 11 31 20 32 20 1 1 27 -29 57 -65z m5632 -98 c93 -219 98 -235 84 -303 -18 -94 -40 -163 -51 -163 -5 0 -23 28 -38 63 -16 34 -54 109 -86 167 l-57 104 31 127 c17 70 31 134 31 144 0 42 28 -3 86 -139z m-4886 129 c20 -24 7 -36 -81 -70 -48 -18 -105 -43 -128 -54 -39 -20 -61 -21 -61 -1 0 4 35 28 78 53 42 24 93 53 112 65 42 25 64 27 80 7z m3793 -165 c108 -106 139 -142 128 -149 -20 -13 -4 -31 28 -31 28 0 66 -31 60 -49 -2 -5 -31 -41 -64 -80 -82 -97 -88 -96 -203 23 -49 51 -96 96 -104 99 -7 3 -43 31 -80 62 l-68 56 27 47 c76 131 98 162 120 162 7 0 77 -63 156 -140z m-4204 63 c-48 -86 -53 -93 -66 -93 -17 0 -64 63 -54 73 8 8 139 75 149 76 2 1 -11 -25 -29 -56z m2598 1 c183 -65 357 -139 374 -160 9 -11 6 -18 -12 -34 -33 -27 -46 -25 -135 19 -76 38 -285 124 -369 152 -57 19 -77 37 -64 60 5 11 18 19 29 19 10 0 90 -25 177 -56z m2218 1 c49 -25 124 -71 165 -103 88 -68 87 -67 39 -204 -37 -104 -51 -109 -94 -40 -16 26 -65 97 -109 157 -141 196 -139 191 -131 214 9 30 29 27 130 -24z m-6865 2 c0 -7 18 -69 41 -138 l40 -127 -60 -121 c-52 -103 -65 -121 -84 -121 -20 0 -26 9 -41 63 -10 34 -23 100 -28 147 l-11 85 38 75 c57 115 86 161 96 154 5 -3 9 -11 9 -17z m2409 -23 c-25 -31 -276 -214 -292 -214 -9 0 -24 11 -33 25 -16 24 -16 27 2 40 39 31 151 90 239 127 105 44 101 43 84 22z m1442 6 c146 -15 417 -63 451 -81 10 -5 28 -9 41 -9 13 0 27 -4 32 -8 6 -5 63 -28 129 -52 152 -55 374 -167 501 -252 178 -119 360 -295 424 -409 l21 -37 -42 -63 c-142 -214 -431 -388 -841 -508 -157 -46 -341 -83 -500 -102 -171 -19 -704 -7 -872 21 -312 51 -608 142 -840 257 -166 83 -416 285 -485 394 l-32 49 33 58 c50 83 245 275 358 350 296 195 704 337 1101 381 52 6 109 13 125 15 69 8 300 5 396 -4z m-1307 -25 c9 -14 14 -30 11 -34 -7 -12 -149 -71 -169 -71 -26 0 -29 21 -6 38 48 36 135 92 141 92 4 0 14 -11 23 -25z m-1068 -56 c46 -38 84 -74 84 -78 0 -4 -31 -36 -69 -70 -67 -59 -111 -77 -111 -46 0 8 -7 15 -15 15 -8 0 -15 -7 -15 -16 0 -13 -9 -14 -57 -9 -120 14 -183 37 -183 66 0 4 48 44 108 89 79 61 108 78 110 66 5 -23 32 -20 32 3 0 27 10 51 22 51 6 0 48 -32 94 -71z m3932 -58 c82 -55 154 -106 160 -114 9 -11 10 -22 2 -41 -5 -15 -10 -41 -10 -57 0 -44 -28 -37 -117 29 -43 33 -118 84 -166 115 -48 31 -90 64 -94 73 -4 10 8 30 33 55 21 21 39 39 41 39 2 0 70 -45 151 -99z m1389 -18 c49 -65 113 -158 142 -206 61 -102 63 -89 -21 -217 -50 -77 -79 -98 -91 -66 -6 16 -111 163 -194 273 l-54 71 63 131 c35 72 64 131 65 131 0 0 41 -53 90 -117z m-4928 33 c21 -34 27 -72 13 -92 -4 -6 -32 -27 -62 -47 -30 -20 -83 -59 -118 -86 -34 -28 -69 -51 -78 -51 -22 0 -101 40 -119 60 -14 15 -5 23 93 89 60 39 136 91 168 116 32 24 64 45 71 45 6 0 21 -15 32 -34z m-1094 -32 c20 -31 57 -81 81 -111 24 -30 44 -58 44 -64 0 -6 -37 -56 -82 -112 -44 -56 -110 -146 -145 -199 -50 -76 -70 -98 -87 -98 -15 0 -48 26 -99 79 -42 43 -77 83 -77 88 0 21 163 153 189 153 16 0 14 27 -2 33 -8 3 -33 -8 -57 -24 -43 -29 -61 -35 -73 -23 -9 9 8 38 71 122 38 51 58 70 66 62 5 -5 18 -10 29 -10 15 0 17 5 12 30 -6 25 0 -37 37 80 24 27 46 50 49 50 3 0 23 -25 44 -56z m5216 -60 l60 -46 -71 -25 c-39 -14 -74 -22 -77 -20 -9 9 9 137 19 137 5 0 37 -21 69 -46z m-794 -28 c124 -74 187 -127 199 -167 25 -80 -6 -78 -126 12 -52 39 -115 81 -140 94 -25 13 -56 32 -69 42 l-23 19 32 27 c18 16 35 27 39 25 4 -2 43 -25 88 -52z m676 -30 c-7 -65 -23 -80 -54 -49 -20 19 -19 20 17 67 20 26 38 46 39 44 2 -2 1 -30 -2 -62z m-3873 -65 c-34 -40 -49 -51 -72 -51 -29 0 -30 1 -23 43 9 53 18 70 52 97 l27 21 29 -30 30 -29 -43 -51z m5283 -71 c69 -150 69 -150 43 -228 -35 -103 -53 -132 -80 -132 -31 0 -43 16 -113 151 l-60 116 18 34 c14 28 66 166 86 229 6 19 54 -58 106 -170z m-6128 110 c127 -18 195 -32 195 -42 0 -5 -21 -29 -47 -53 -72 -66 -101 -63 -187 18 -94 89 -91 95 39 77z m5017 -76 c51 -47 96 -91 100 -98 13 -24 -20 -56 -58 -56 -37 0 -58 -25 -34 -40 10 -6 6 -15 -16 -34 -37 -32 -55 -32 -84 -1 -28 30 -23 37 30 39 30 0 40 5 40 17 0 14 -13 17 -76 21 l-76 3 -60 63 c-37 38 -58 68 -56 79 2 12 34 30 93 55 50 20 93 37 97 37 3 1 48 -38 100 -85z m-6328 -28 c10 -43 28 -111 41 -152 l22 -73 -21 -75 c-30 -108 -45 -103 -84 27 -48 158 -48 165 -16 272 15 52 31 91 34 87 4 -4 15 -42 24 -86z m287 52 c12 -24 50 -86 85 -139 l64 -96 -72 -152 c-67 -137 -75 -151 -98 -148 -28 2 -80 84 -126 198 l-27 68 23 58 c23 57 120 253 126 253 2 0 13 -19 25 -42z m6511 -110 c79 -105 168 -241 168 -257 0 -4 -30 -39 -66 -79 -70 -76 -99 -89 -130 -54 -8 9 -38 53 -66 97 -28 44 -72 107 -98 140 -25 33 -50 66 -54 73 -8 13 130 190 150 191 5 1 49 -50 96 -111z m-5116 56 l79 -37 -44 -38 c-69 -61 -104 -50 -135 44 -27 79 -14 83 100 31z m-417 -149 c3 -24 -31 -55 -60 -55 -19 0 -29 -5 -29 -15 0 -8 7 -15 15 -15 8 0 15 -2 15 -4 0 -3 -25 -39 -55 -82 -31 -42 -72 -103 -92 -135 -30 -49 -40 -59 -64 -59 -15 0 -31 5 -35 11 -3 6 -25 19 -48 29 -22 10 -58 33 -79 51 -37 32 -38 36 -26 62 13 30 20 32 36 16 15 -15 117 135 108 159 -7 19 38 86 104 154 l45 48 82 -78 c45 -42 82 -82 83 -87z m6378 -8 l6 -129 -29 4 c-25 3 -30 9 -42 51 -13 45 -12 55 14 148 35 123 43 111 51 -74z m-6089 106 c11 -33 11 -33 -22 -33 -51 0 -61 19 -29 52 29 31 35 29 51 -19z m4431 18 c22 -14 5 -127 -22 -146 -29 -20 -32 -20 -77 21 -48 43 -43 60 28 105 51 32 51 32 71 20z m106 -114 c-9 -4 -28 -7 -43 -5 -22 2 -27 7 -24 28 5 53 11 55 47 20 29 -28 33 -36 20 -43z m-4583 32 c9 -5 27 -9 39 -9 24 0 59 -26 59 -43 0 -17 -32 -47 -50 -47 -9 0 -25 9 -35 20 -10 11 -22 20 -27 20 -5 0 -25 12 -44 26 -27 21 -32 30 -23 40 11 14 46 11 81 -7z m288 -26 c0 -19 -6 -23 -28 -23 -42 0 -46 10 -15 42 29 30 43 24 43 -19z m5473 -130 c30 -60 62 -131 72 -160 23 -63 18 -75 -65 -166 -80 -87 -91 -82 -152 71 -27 65 -48 124 -48 131 0 7 17 38 39 69 21 31 50 81 65 110 14 28 28 52 31 52 3 0 29 -48 58 -107z m-701 30 c104 -128 205 -293 193 -313 -4 -6 -33 -28 -65 -50 -40 -27 -70 -40 -93 -40 -32 0 -38 5 -90 88 -30 48 -84 125 -118 171 l-62 84 26 19 c15 11 51 40 80 64 28 24 57 44 63 44 7 0 36 -30 66 -67z m-412 51 c0 -3 -5 -14 -10 -25 -8 -15 -7 -19 4 -19 8 0 16 6 19 13 3 8 13 4 31 -12 14 -14 26 -27 26 -31 0 -10 -101 -59 -135 -65 -26 -6 -36 0 -78 43 l-48 49 24 16 c36 23 167 48 167 31z m-4399 -16 c52 -15 77 -42 58 -64 -19 -23 -66 -10 -106 28 -18 18 -33 36 -33 40 0 11 36 10 81 -4z m-314 -57 l53 -32 -83 -109 c-69 -92 -86 -109 -109 -110 -22 0 -28 -5 -28 -21 0 -15 5 -19 15 -15 21 8 19 0 -10 -51 -29 -48 -32 -49 -78 -29 -32 13 -78 56 -61 56 5 0 -4 10 -19 23 l-28 22 69 105 c124 188 167 231 207 206 11 -7 44 -28 72 -45z m-1497 -106 l41 -110 -11 -100 c-5 -55 -11 -113 -13 -130 -1 -18 -8 -31 -18 -33 -25 -5 -59 127 -66 255 -7 125 5 280 18 248 4 -11 27 -69 49 -130z m7616 0 c27 -135 24 -207 -12 -280 -24 -49 -33 -60 -54 -60 -23 0 -27 7 -53 106 l-28 106 58 120 c32 67 61 116 64 109 4 -6 15 -51 25 -101z m-1649 78 c-3 -16 -10 -40 -16 -55 -14 -38 -58 -38 -94 0 -26 27 -27 29 -10 45 24 21 62 36 97 36 26 1 28 -2 23 -26z m-5366 -21 c90 -72 149 -127 149 -138 0 -5 -16 -49 -35 -97 -19 -48 -46 -124 -59 -170 -32 -111 -46 -113 -147 -19 -109 102 -108 97 -60 230 44 125 91 232 100 232 3 0 27 -17 52 -38z m-401 -91 c28 -54 65 -120 82 -146 l31 -47 -17 -86 c-9 -47 -18 -88 -21 -90 -3 -3 -16 0 -30 6 -17 8 -42 47 -86 137 -34 68 -61 135 -61 148 0 23 42 177 48 177 2 0 26 -44 54 -99z m5854 37 c-6 -9 -58 -11 -67 -2 -3 3 -1 -19 5 -36 l10 29 29 -27 c15 -15 26 -31 23 -36z m-4371 -21 c40 -47 41 -48 25 -75 -16 -25 -22 -27 -97 -30 -86 -3 -127 9 -114 33 5 7 30 39 57 70 58 68 74 68 129 2z m4683 21 c81 -87 219 -300 210 -323 -7 -19 -138 -59 -167 -52 -36 10 -42 16 -83 91 -20 38 -62 107 -92 152 -30 46 -54 86 -54 89 0 6 132 74 146 75 5 0 24 -15 40 -32z m-4479 -29 c9 -9 6 -21 -10 -50 -25 -43 -41 -47 -77 -19 l-25 19 29 30 c31 32 63 40 83 20z m5219 -81 c9 -18 34 -81 56 -141 45 -127 48 -117 -62 -193 -94 -64 -106 -59 -146 59 -17 51 -38 108 -47 129 l-17 36 53 30 c28 17 70 48 92 71 21 23 43 41 47 41 4 0 15 -14 24 -32z m-6201 -88 l105 -70 -16 -38 c-34 -78 -72 -178 -79 -209 -6 -30 -10 -33 -42 -33 -39 0 -182 45 -200 63 -8 9 -4 36 19 112 29 97 91 245 103 245 3 0 53 -32 110 -70z m5053 31 c20 -22 52 -68 71 -102 l33 -62 -48 7 c-67 9 -90 27 -126 101 -32 64 -32 65 -13 80 30 22 42 19 83 -24z m-4313 -1 c3 -5 -14 -42 -38 -82 l-44 -73 -56 -3 c-66 -3 -137 13 -137 32 0 7 17 38 37 69 l37 56 80 4 c45 1 89 4 98 5 9 1 20 -2 23 -8z m4492 -2 c54 -10 69 -17 88 -42 30 -41 95 -160 95 -174 0 -15 -56 -16 -65 -2 -3 6 -28 10 -54 10 -26 0 -54 6 -63 13 -22 18 -110 186 -103 197 8 13 24 12 102 -2z m-4323 -7 c3 -5 -9 -31 -27 -57 -25 -38 -42 -52 -75 -63 -33 -10 -46 -10 -57 -1 -13 10 -12 16 2 44 38 75 51 86 103 86 27 0 51 -4 54 -9z m5651 -139 c8 -46 15 -111 15 -143 0 -58 0 -58 -63 -123 -50 -53 -68 -66 -93 -66 l-31 0 -13 104 -13 105 48 78 c27 43 64 100 83 127 34 46 36 47 44 26 5 -13 15 -61 23 -108z m-7239 -158 c43 -70 44 -74 44 -158 0 -68 -3 -86 -14 -86 -8 0 -53 36 -100 81 l-86 81 0 153 c0 84 3 161 6 170 5 12 21 -10 57 -77 27 -51 69 -125 93 -164z m6639 199 c26 -61 85 -234 85 -247 0 -19 -130 -76 -171 -76 l-35 0 -38 108 c-47 134 -51 152 -37 152 6 0 48 22 93 50 46 27 84 50 85 50 2 0 10 -17 18 -37z m-4710 -93 c7 -14 15 -42 19 -62 6 -30 4 -38 -8 -38 -25 0 -65 71 -72 125 l-7 50 28 -25 c15 -14 33 -36 40 -50z m-962 17 c32 -13 59 -26 60 -28 0 -2 -14 -50 -33 -106 l-33 -103 -78 0 c-67 0 -82 3 -103 23 l-26 22 39 92 c53 127 65 145 94 133 12 -4 48 -19 80 -33z m4707 -9 c25 -41 25 -48 1 -48 -16 0 -51 51 -51 74 0 19 33 1 50 -26z m-4155 0 c-16 -54 -43 -83 -106 -117 -39 -21 -72 -32 -82 -28 -15 6 -15 11 6 59 23 52 25 53 98 79 94 33 92 33 84 7z m5884 -59 c-5 -35 -19 -99 -31 -141 -18 -70 -23 -78 -45 -78 -24 0 -24 0 -17 73 3 -39 11 81 17 92 21 41 79 126 83 123 2 -2 -1 -33 -7 -69z m-7134 -9 c33 -28 73 -59 88 -68 26 -15 28 -21 23 -57 -3 -22 -9 -104 -12 -182 -7 -157 -9 -160 -70 -128 -16 8 -37 15 -47 15 -21 0 -120 55 -138 76 -18 22 2 196 37 316 31 111 24 109 119 28z m5585 16 c18 -8 31 -30 49 -79 13 -37 21 -70 18 -73 -10 -11 -65 7 -110 36 -41 26 -48 36 -66 95 -12 37 -21 68 -21 70 0 4 92 -31 130 -49z m-4030 -7 c0 -33 -3 -39 -20 -39 -19 0 -20 4 -14 38 8 45 13 54 25 47 5 -4 9 -24 9 -46z m-197 4 c-7 -52 -54 -117 -87 -121 -52 -6 -28 61 44 126 19 17 38 32 42 32 4 0 4 -17 1 -37z m4801 -72 c20 -60 36 -118 36 -129 0 -25 -25 -32 -126 -32 -61 0 -85 4 -94 15 -12 14 -70 176 -70 195 0 4 19 11 42 15 22 4 64 15 92 25 83 30 80 32 120 -89z m-5178 79 l53 0 -23 -67 c-22 -65 -24 -68 -65 -80 -75 -21 -154 -25 -175 -9 -18 15 -18 17 9 92 l28 77 60 -7 c33 -3 84 -6 113 -6z m776 -43 c48 -71 64 -105 72 -149 9 -48 -9 -50 -57 -8 -31 27 -35 35 -40 102 -3 40 -8 81 -12 91 -13 31 2 18 37 -36z m4962 11 c19 -89 26 -136 32 -205 l7 -80 -49 -29 c-96 -58 -146 -69 -162 -36 -5 9 -12 46 -15 82 -4 36 -9 86 -13 111 l-6 47 80 51 c44 29 86 58 92 66 18 21 29 19 34 -7z m-1664 -27 c0 -61 -15 -91 -45 -91 -19 0 -25 5 -25 23 0 24 48 107 62 107 5 0 8 -18 8 -39z m787 24 c6 -2 25 -46 42 -97 l29 -93 -43 -3 c-24 -2 -68 4 -98 13 l-55 16 -26 83 c-14 46 -26 86 -26 88 0 5 159 -1 177 -7z m-672 -63 c-2 -15 -7 -48 -10 -74 -5 -42 -9 -48 -29 -48 -44 0 -40 72 6 129 27 33 39 31 33 -7z m258 -4 c31 -25 55 -98 32 -98 -6 0 -19 8 -27 18 -18 20 -68 106 -68 116 0 9 28 -7 63 -36z m-3779 -32 c48 -67 51 -80 40 -173 -10 -78 -32 -71 -79 21 -35 69 -37 78 -30 132 7 55 14 84 20 84 2 0 24 -29 49 -64z m-455 -22 c-6 -38 -14 -74 -18 -81 -3 -6 -34 -34 -69 -62 -58 -47 -103 -64 -116 -43 -7 11 22 152 34 167 6 7 32 20 58 30 26 10 63 28 82 40 19 13 36 21 38 20 2 -1 -2 -34 -9 -71z m726 40 c33 -20 112 -62 176 -94 113 -57 129 -71 129 -111 0 -29 -40 -24 -86 11 -21 16 -47 30 -56 30 -10 0 -35 15 -55 33 -21 18 -52 39 -69 46 -33 13 -97 75 -107 104 -9 24 0 22 68 -19z m3014 9 c-6 -16 -18 -36 -27 -46 -39 -43 -271 -187 -302 -187 -11 0 -13 49 -2 66 4 7 52 35 107 64 55 29 125 70 155 91 67 47 84 50 69 12z m-4610 -72 l73 -22 -6 -42 c-3 -23 -9 -95 -13 -159 l-6 -118 -66 0 c-72 0 -138 13 -154 29 -16 16 -20 142 -7 252 6 57 14 107 16 111 3 4 24 -1 47 -11 23 -10 75 -28 116 -40z m1040 -37 c1 -46 -4 -59 -44 -114 -39 -52 -50 -61 -73 -58 -25 3 -27 6 -30 60 l-3 58 68 70 c75 79 81 78 82 -16z m160 -30 c1 -12 7 -27 15 -33 8 -7 49 -64 92 -127 43 -64 96 -136 117 -160 l40 -45 -16 -57 c-41 -147 -62 -161 -124 -84 -96 117 -163 234 -163 285 0 18 -7 41 -16 52 -8 11 -23 48 -34 82 l-19 63 36 73 36 72 18 -50 c10 -28 18 -60 18 -71z m3754 48 c28 -62 27 -102 -3 -102 -11 0 -21 13 -28 39 -14 45 -16 121 -3 121 4 0 20 -26 34 -58z m256 34 c6 -7 38 -26 72 -41 63 -28 71 -39 84 -112 7 -43 7 -43 -23 -43 -20 0 -47 13 -79 38 -65 52 -69 59 -76 120 -6 52 1 64 22 38z m-111 -68 c61 -66 62 -69 62 -123 0 -48 -3 -56 -17 -53 -10 2 -39 34 -65 72 -43 62 -48 75 -48 125 0 30 1 52 3 50 2 -2 31 -34 65 -71z m1055 10 c4 -29 10 -92 13 -140 l7 -87 -29 -12 c-59 -22 -133 -33 -161 -23 -29 10 -32 21 -45 197 l-3 37 95 39 c52 22 100 40 106 40 6 1 14 -23 17 -51z m-5507 25 c-15 -49 -26 -113 -26 -153 0 -25 -4 -51 -9 -58 -11 -18 -147 -72 -180 -72 -14 0 -35 7 -45 15 -18 14 -19 20 -7 108 17 135 18 137 55 138 17 0 67 9 111 18 107 24 107 24 101 4z m6009 -35 c-4 -29 -18 -107 -31 -173 l-24 -120 -54 -52 c-32 -32 -63 -53 -76 -53 -22 0 -22 2 -15 58 4 31 11 96 14 144 l6 87 90 80 c50 44 92 80 93 80 2 1 1 -23 -3 -51z m-4963 -66 c37 -23 99 -58 138 -77 54 -27 70 -40 66 -53 -3 -9 -8 -34 -12 -54 -4 -23 -12 -38 -21 -38 -21 0 -84 34 -137 74 -25 20 -50 36 -55 36 -4 0 -29 18 -53 40 -34 29 -47 50 -52 77 -4 21 -9 51 -13 67 l-5 30 38 -31 c22 -17 69 -49 106 -71z m3054 -32 c8 -81 -11 -130 -50 -130 -26 0 -29 6 -42 102 -6 44 -3 51 32 99 l38 52 8 -28 c4 -15 10 -58 14 -95z m-4394 104 c3 -3 2 -22 -3 -42 -5 -20 -11 -80 -15 -132 -5 -69 -11 -98 -22 -107 -10 -9 -51 -13 -115 -13 l-100 0 7 93 c7 83 19 161 31 195 3 8 34 12 108 12 57 0 106 -2 109 -6z m4216 -46 c-13 -58 -28 -79 -95 -131 -119 -92 -159 -105 -187 -65 -34 48 -23 63 82 117 53 28 120 66 147 85 28 19 53 35 56 35 4 1 3 -18 -3 -41z m-3062 -132 c-9 -101 -14 -116 -41 -116 -15 0 -32 13 -50 40 -29 42 -29 44 -8 198 l6 44 49 -49 50 -48 -6 -69z m3955 144 c10 -6 47 -16 81 -23 70 -14 64 -4 82 -141 l6 -49 -52 7 c-29 4 -75 19 -103 34 -52 29 -54 31 -70 139 -6 39 -4 43 15 43 12 0 30 -5 41 -10z m-6082 -70 c88 -70 88 -71 95 -124 5 -46 42 -187 61 -238 12 -31 -34 -21 -87 20 -64 48 -91 95 -123 216 -27 100 -45 196 -38 196 3 0 44 -32 92 -70z m5526 -23 l37 -88 -22 -54 c-25 -61 -31 -68 -54 -59 -18 7 -56 103 -56 142 0 23 49 157 55 150 1 -2 19 -43 40 -91z m989 41 c3 -24 8 -76 12 -117 l7 -74 -106 5 c-59 3 -112 10 -120 16 -8 7 -17 38 -20 70 -4 31 -9 72 -13 90 l-6 32 58 1 c33 0 79 4 104 8 78 14 77 15 84 -31z m-1692 -34 c-7 -37 -12 -40 -77 -67 -39 -16 -126 -44 -194 -63 -140 -40 -191 -40 -191 -1 0 38 12 45 117 71 110 28 303 89 331 105 22 12 24 4 14 -45z m-1907 -54 c55 -12 110 -24 123 -26 19 -4 22 -11 22 -49 0 -40 -3 -45 -22 -45 -34 0 -271 64 -363 97 l-80 29 -3 47 -3 46 113 -38 c62 -21 158 -48 213 -61z m-1441 44 c13 -99 9 -128 -26 -161 -55 -51 -130 -103 -149 -103 -14 0 -19 12 -24 64 -4 38 -3 71 3 82 10 18 172 163 183 164 4 0 9 -21 13 -46z m233 -37 c12 -39 23 -78 23 -85 0 -27 -125 -192 -146 -192 -6 0 -21 38 -34 85 l-23 85 60 72 c33 40 66 83 74 95 7 12 15 20 18 17 2 -2 15 -37 28 -77z m3979 6 c61 -85 169 -191 251 -245 49 -33 62 -46 58 -62 -21 -108 -28 -126 -44 -126 -70 0 -341 314 -341 395 0 30 18 105 25 105 2 0 25 -30 51 -67z m187 17 c26 -16 65 -39 87 -50 l40 -20 0 -80 c0 -76 -1 -80 -23 -80 -21 0 -167 118 -176 141 -5 16 10 119 18 119 4 0 28 -13 54 -30z m1173 -72 c-4 -40 -14 -112 -22 -159 l-16 -87 -71 -25 c-96 -34 -115 -39 -125 -33 -5 3 -3 38 4 78 7 40 13 99 14 131 l0 57 83 39 c45 21 91 46 102 54 34 27 38 20 31 -55z m-6746 -57 c53 -19 84 -35 92 -45 3 -5 9 -34 13 -63 4 -30 17 -91 31 -136 13 -45 24 -85 24 -89 0 -23 -140 10 -195 46 -14 10 -35 38 -46 64 -40 92 -77 241 -70 284 1 3 27 -6 59 -21 31 -15 73 -33 92 -40z m2588 -31 c85 -21 156 -41 159 -43 2 -3 1 -26 -2 -51 -6 -40 -10 -46 -31 -46 -34 0 -216 39 -236 50 -10 6 -25 10 -34 10 -28 0 -153 40 -160 51 -3 6 -3 35 1 64 l6 53 72 -24 c40 -14 141 -43 225 -64z m347 64 c50 -8 171 -19 270 -22 l180 -7 3 -48 3 -48 -138 6 c-183 9 -385 33 -399 48 -13 14 -26 87 -16 87 4 0 48 -7 97 -16z m1069 -21 c-3 -21 -9 -41 -13 -45 -23 -25 -532 -73 -544 -50 -2 4 -2 23 0 43 l5 36 131 8 c73 4 188 15 257 25 184 26 172 27 164 -17z m496 8 c0 -84 -2 -85 -123 -119 -141 -40 -281 -72 -310 -72 -34 0 -44 16 -38 58 l6 36 140 36 c77 20 174 48 215 63 100 34 110 34 110 -2z m369 -88 l1 -82 -54 -41 c-45 -34 -61 -41 -92 -38 -38 3 -38 3 -51 63 -7 33 -12 65 -13 71 0 7 44 41 98 77 112 75 110 76 111 -50z m262 13 l36 -94 -25 -41 c-18 -30 -30 -41 -49 -41 -26 0 -42 27 -65 113 -11 42 -10 46 23 100 19 31 36 57 39 57 3 0 21 -42 41 -94z m-4197 -13 c8 -113 13 -105 -101 -160 -43 -21 -82 -33 -100 -31 -24 3 -29 9 -35 43 -4 22 -7 69 -7 105 l-1 65 108 36 c59 20 112 37 118 38 7 1 14 -35 18 -96z m1109 35 c62 -28 116 -55 121 -60 6 -4 2 -40 -9 -88 -17 -76 -19 -80 -46 -80 -29 0 -126 52 -179 96 -31 26 -31 27 -24 98 6 69 10 86 20 86 2 0 55 -23 117 -52z m3786 33 c36 -10 78 -22 94 -25 l27 -6 0 -100 c0 -55 -4 -100 -9 -100 -18 0 -77 24 -103 42 -14 10 -35 18 -45 18 -35 0 -43 21 -43 107 0 46 3 83 6 83 4 0 37 -9 73 -19z m-516 -33 c58 -98 189 -239 307 -330 l34 -27 -23 -43 c-41 -74 -70 -108 -95 -108 -44 0 -214 196 -284 327 -30 58 -32 64 -19 90 8 15 22 52 31 81 10 28 19 52 21 52 2 0 14 -19 28 -42z m1172 -15 c-28 -233 -30 -235 -153 -231 l-87 3 4 30 c1 17 8 68 15 114 l11 84 84 19 c46 9 86 20 89 23 3 3 14 5 24 5 17 0 19 -5 13 -47z m-4932 -168 c0 -6 -19 -41 -42 -78 -47 -74 -65 -81 -135 -52 -34 14 -76 73 -76 107 0 7 21 38 46 68 25 30 60 77 76 103 l31 48 50 -93 c27 -51 50 -98 50 -103z m-334 83 c27 -103 28 -101 -76 -191 -86 -74 -102 -73 -124 8 -36 135 -39 124 45 184 41 29 84 63 97 77 12 13 26 21 29 17 4 -5 17 -47 29 -95z m4995 86 c9 -3 13 -10 10 -15 -3 -5 -7 -39 -9 -77 -1 -37 -8 -84 -14 -105 l-12 -37 -67 6 c-37 4 -75 11 -84 15 -31 16 -48 68 -48 146 l0 73 104 0 c57 0 111 -3 120 -6z m-5560 -106 c3 -51 7 -104 9 -117 2 -19 -5 -26 -33 -37 -56 -20 -111 -17 -143 9 -23 18 -31 38 -47 117 -11 52 -17 96 -15 98 2 3 48 9 102 14 53 5 99 11 101 13 13 13 20 -13 26 -97z m-280 59 c3 -12 10 -58 16 -101 7 -43 18 -96 25 -117 17 -47 13 -49 -99 -49 -66 0 -86 4 -99 18 -15 17 -49 128 -62 207 l-7 40 27 -25 c22 -21 28 -22 35 -10 12 19 12 44 0 56 -6 6 22 8 75 6 78 -3 85 -5 89 -25z m3602 -62 c-5 -23 -13 -35 -29 -38 -68 -17 -306 -37 -397 -35 l-105 3 0 45 0 45 123 7 c132 7 394 36 402 45 8 8 12 -38 6 -72z m-966 44 c52 -5 158 -14 235 -19 77 -5 141 -9 143 -9 6 -2 1 -90 -5 -94 -10 -6 -466 20 -505 28 -27 6 -28 9 -28 61 l0 55 33 -6 c17 -3 75 -10 127 -16z m-574 -89 c86 -27 187 -56 223 -64 54 -11 66 -17 65 -32 -1 -10 -5 -45 -9 -76 l-6 -58 -42 0 c-40 0 -114 16 -252 55 -33 9 -82 22 -109 29 -26 8 -58 23 -69 35 -19 19 -20 25 -10 63 18 66 32 98 42 98 6 0 81 -22 167 -50z m2052 -56 l-3 -79 -145 -36 c-80 -21 -180 -43 -222 -50 -98 -16 -108 -10 -108 72 0 56 1 59 28 65 74 16 296 76 362 98 41 13 79 21 83 17 4 -4 7 -43 5 -87z m2352 -14 c-46 -108 -97 -170 -137 -170 -42 0 -23 47 60 143 29 34 65 79 81 100 15 21 31 36 34 33 3 -3 -14 -51 -38 -106z m-1499 -146 c32 -39 86 -99 119 -134 34 -34 59 -67 57 -73 -2 -7 -26 -38 -52 -71 l-48 -58 -53 7 c-30 3 -54 4 -54 1 0 -3 14 -18 32 -35 l32 -30 -109 -111 c-119 -121 -214 -200 -240 -200 -35 0 -54 22 -89 104 -20 46 -36 89 -36 94 0 6 37 35 83 65 45 30 118 92 161 137 69 70 82 80 92 66 12 -17 54 -22 54 -7 0 5 -7 14 -15 21 -27 23 -26 47 5 98 16 27 30 57 30 67 0 16 -4 15 -28 -8 -16 -15 -40 -27 -54 -27 -34 0 -77 50 -107 123 l-23 56 47 72 48 71 45 -79 c25 -43 71 -110 103 -149z m460 191 c27 -14 47 -30 44 -34 -6 -11 -104 -35 -111 -28 -5 5 6 87 13 87 2 0 26 -11 54 -25z m-4822 -107 c11 -42 21 -83 21 -91 0 -9 -39 -38 -90 -67 -119 -68 -128 -66 -158 37 -41 143 -43 135 30 161 35 12 86 35 113 51 57 33 46 45 84 -91z m1115 5 c20 -11 19 -13 -9 -112 l-28 -101 -38 0 c-37 0 -112 43 -187 107 l-33 28 35 87 c19 48 37 92 40 97 5 7 132 -53 220 -106z m2814 9 c12 -53 22 -104 22 -112 -1 -16 -80 -82 -124 -101 -16 -8 -30 -9 -36 -3 -11 11 -62 206 -55 212 13 14 151 100 160 101 6 1 21 -43 33 -97z m-5070 38 c39 -23 72 -47 72 -54 0 -6 25 -62 55 -123 l54 -113 -29 0 c-39 0 -90 59 -166 196 -62 110 -80 148 -66 141 4 -2 40 -23 80 -47z m6846 13 c-12 -49 -43 -126 -77 -188 -31 -57 -35 -61 -97 -82 -66 -23 -117 -26 -113 -8 2 6 22 63 45 127 42 115 44 117 78 123 19 4 62 17 95 30 77 30 77 30 69 -2z m-5045 -49 c38 -49 42 -59 32 -80 -7 -16 -19 -24 -36 -24 -42 0 -116 22 -121 35 -6 13 61 125 74 124 4 0 27 -25 51 -55z m-356 24 c7 -13 35 -58 61 -102 l47 -78 -61 -61 c-56 -56 -70 -88 -38 -86 7 0 37 27 66 60 28 32 52 55 52 50 0 -5 25 -36 55 -70 30 -34 55 -64 55 -67 0 -3 -12 -21 -27 -40 -22 -30 -30 -34 -55 -29 -21 5 -28 3 -28 -9 0 -9 7 -16 15 -16 8 0 15 -3 15 -6 0 -15 -65 -84 -80 -84 -17 0 -59 41 -103 101 -31 41 -33 49 -12 49 10 0 15 10 15 29 0 31 -14 49 -25 31 -3 -5 -19 -10 -35 -10 -23 0 -35 9 -58 43 -41 58 -74 126 -70 142 3 13 177 173 190 174 4 1 14 -9 21 -21z m4785 -16 l104 -17 -5 -30 c-9 -55 -68 -175 -86 -175 -18 0 -164 48 -216 71 -16 7 -41 22 -53 33 l-24 21 69 63 c50 45 73 61 88 57 11 -3 67 -13 123 -23z m-2108 -67 c0 -41 -1 -75 -2 -75 -2 0 -52 -7 -113 -15 -60 -8 -179 -15 -262 -15 l-153 0 0 64 0 64 98 6 c147 11 312 27 357 36 78 15 75 18 75 -65z m-875 46 c83 -7 183 -14 223 -17 l72 -6 0 -64 0 -64 -122 1 c-194 0 -385 14 -403 29 -16 13 -22 120 -8 134 5 4 26 6 48 3 22 -2 108 -9 190 -16z m3339 -13 c-17 -57 -65 -172 -79 -195 -16 -24 -21 -25 -95 -21 -44 2 -84 8 -91 15 -8 8 -2 36 27 112 l39 100 70 3 c39 2 85 5 103 6 30 2 33 0 26 -20z m-5729 -40 c4 -23 18 -73 31 -111 13 -39 24 -71 24 -73 0 -9 -65 -25 -83 -20 -23 5 -90 96 -131 174 -16 31 -16 33 1 39 39 15 138 40 145 37 3 -2 9 -23 13 -46z m-678 21 c15 -6 59 -19 96 -28 l69 -18 64 -123 64 -123 -82 6 c-46 3 -90 8 -99 11 -19 8 -137 211 -153 264 -8 25 0 27 41 11z m4643 -41 c16 -60 42 -151 47 -166 7 -17 -57 -42 -105 -42 l-40 0 -11 75 c-18 124 -17 127 37 152 26 11 50 22 54 22 4 1 12 -18 18 -41z m-2327 -27 c73 -27 183 -64 245 -82 127 -37 121 -28 101 -146 l-11 -63 -37 1 c-32 0 -105 12 -226 38 -132 29 -275 78 -275 95 0 2 4 16 9 32 6 16 19 62 31 102 11 39 23 72 26 72 3 0 65 -22 137 -49z m2768 5 c11 -25 35 -72 54 -106 25 -45 32 -66 26 -78 -14 -27 -151 -155 -203 -190 -30 -21 -59 -32 -81 -32 -35 0 -35 0 -67 88 -49 135 -49 131 16 172 31 19 93 70 138 112 44 42 85 77 89 78 4 0 17 -20 28 -44z m-4633 -11 c9 -22 35 -74 59 -115 52 -91 49 -94 -79 -95 -101 0 -90 -9 -168 137 -37 71 -48 99 -38 103 12 4 150 12 192 11 12 -1 24 -15 34 -41z m1091 -14 c30 -10 57 -23 59 -29 6 -19 -57 -102 -77 -102 -16 0 -70 56 -95 97 -11 20 12 53 37 52 12 0 47 -8 76 -18z m2931 17 c19 -127 26 -204 21 -210 -16 -17 -353 -88 -420 -88 -22 0 -48 8 -60 18 -19 15 -22 25 -19 86 l3 70 113 23 c62 13 163 41 225 62 105 36 137 44 137 39z m1496 -117 c65 -22 162 -45 214 -52 52 -7 96 -14 98 -15 5 -4 -27 -52 -87 -131 l-55 -73 -74 0 c-83 0 -116 12 -107 39 5 16 0 17 -48 13 -45 -4 -63 1 -118 28 -83 42 -199 117 -199 129 0 14 72 103 108 133 l30 25 60 -28 c32 -16 112 -46 178 -68z m-4939 29 c17 -39 18 -50 7 -50 -8 0 -11 -6 -8 -15 4 -8 12 -15 18 -15 15 0 69 -56 86 -89 13 -26 63 -93 121 -162 l38 -46 -32 -31 c-56 -54 -87 -48 -306 63 -184 94 -238 131 -266 186 -18 34 -18 34 110 91 75 33 105 42 117 35 8 -6 23 -7 33 -3 15 5 15 9 4 22 -12 14 -9 20 16 40 17 13 32 24 36 24 3 0 15 -22 26 -50z m793 0 c16 -11 58 -34 94 -51 97 -45 96 -42 44 -172 -54 -135 -61 -139 -155 -78 -74 48 -203 152 -203 164 0 5 24 42 53 82 51 72 53 74 95 74 29 1 54 -6 72 -19z m4854 -12 c-16 -29 -126 -185 -148 -212 -16 -20 -29 -27 -41 -22 -16 6 -16 8 1 34 10 15 38 61 61 102 34 59 51 79 81 92 46 20 55 22 46 6z m-3729 -53 c66 -9 184 -18 263 -22 l142 -6 0 -84 0 -83 -122 1 c-68 0 -187 4 -266 8 -176 11 -187 17 -177 101 9 78 16 100 29 100 6 0 65 -7 131 -15z m1005 -74 c0 -77 -3 -90 -17 -95 -40 -11 -247 -27 -383 -29 l-145 -2 0 85 0 85 75 3 c90 3 403 32 409 38 2 2 17 4 33 4 l28 0 0 -89z m2564 67 c-26 -45 -136 -207 -154 -225 -28 -31 -99 -32 -125 -3 -18 20 -18 21 3 48 12 15 41 55 64 89 28 41 52 65 68 68 14 3 48 12 75 19 66 18 78 19 69 4z m-1768 -170 c22 -62 39 -117 39 -122 0 -15 -97 -47 -134 -44 l-36 3 -22 90 c-12 50 -22 98 -23 107 0 17 98 76 126 78 7 0 29 -51 50 -112z m-4691 88 c11 -4 39 -34 62 -69 23 -34 56 -81 73 -104 28 -39 29 -43 11 -43 -20 0 -122 104 -172 177 -41 59 -41 58 26 39z m5563 -18 c26 -18 82 -51 126 -73 44 -23 81 -46 83 -51 2 -5 -26 -24 -61 -41 -35 -18 -80 -46 -99 -62 -19 -17 -45 -31 -57 -31 -22 0 -130 71 -162 106 -15 18 -13 23 44 102 33 45 65 82 70 82 5 0 30 -14 56 -32z m-5012 -15 c74 -97 214 -250 300 -328 l95 -86 -53 -24 c-29 -14 -71 -25 -93 -25 -37 0 -50 8 -156 103 -63 57 -135 128 -160 158 -69 81 -149 189 -149 200 0 5 15 9 33 10 17 0 57 7 87 14 30 7 58 13 61 14 4 0 19 -16 35 -36z m1634 -26 c102 -39 200 -70 338 -107 49 -13 50 -14 26 -142 l-16 -88 -34 0 c-18 0 -53 5 -76 10 -24 6 -88 19 -143 31 -181 36 -325 86 -325 112 0 11 75 212 87 230 3 4 10 6 17 4 6 -3 63 -25 126 -50z m-1895 0 c11 -13 41 -53 67 -88 26 -35 62 -81 79 -101 l31 -38 -60 0 c-104 0 -119 7 -179 79 -30 36 -73 93 -95 125 l-41 59 89 -6 c78 -4 91 -8 109 -30z m1304 -50 c53 -41 126 -93 164 -117 l67 -42 -54 -102 -55 -101 -41 1 c-26 0 -51 9 -68 22 -15 12 -43 29 -62 39 -38 19 -210 179 -210 196 0 5 19 31 43 57 23 26 56 63 73 83 17 21 35 37 39 37 4 0 51 -33 104 -73z m2891 -64 c12 -50 20 -99 18 -109 -3 -20 -56 -36 -286 -84 -157 -33 -223 -37 -241 -16 -7 8 -13 53 -14 101 l-2 88 85 17 c113 23 260 63 340 92 42 16 67 20 71 13 4 -5 16 -51 29 -102z m961 -90 c43 -32 79 -63 79 -69 0 -24 -203 -206 -306 -273 -144 -95 -157 -95 -219 -1 -25 39 -45 74 -45 78 0 4 38 27 85 50 98 48 144 88 235 201 38 48 70 79 78 76 7 -3 49 -31 93 -62z m-2579 43 c73 -8 197 -18 276 -22 78 -4 145 -11 148 -16 4 -5 3 -53 -1 -105 l-7 -96 -147 8 c-80 4 -210 10 -287 14 -183 8 -187 10 -168 114 21 109 23 117 38 117 8 0 74 -7 148 -14z m1043 -28 c4 -24 7 -72 8 -108 l2 -65 -105 -12 c-58 -6 -182 -12 -276 -12 -210 -1 -206 -3 -202 115 l3 79 185 12 c102 7 217 16 255 21 126 17 123 18 130 -30z m-2935 -29 c63 -29 117 -55 120 -57 10 -8 -65 -62 -86 -62 -25 0 -92 46 -156 108 -53 51 -56 58 -30 65 23 6 20 7 152 -54z m5260 49 c0 -12 -94 -120 -144 -166 -42 -39 -50 -42 -84 -37 -69 11 -82 15 -82 26 0 5 38 49 85 98 l85 88 70 -1 c38 -1 70 -4 70 -8z m-1415 -162 c56 -124 57 -119 -42 -156 -62 -23 -106 -26 -121 -7 -13 15 -75 197 -70 203 13 12 174 81 179 76 3 -4 27 -56 54 -116z m-3483 67 c29 -27 67 -58 83 -70 l30 -22 -31 -1 c-29 0 -123 33 -188 67 l-28 15 28 29 c15 16 34 29 41 29 7 0 36 -21 65 -47z m-737 -98 c130 -123 130 -122 13 -124 -55 -1 -58 0 -126 59 -63 55 -152 151 -152 164 0 4 113 13 142 11 3 0 59 -49 123 -110z m1462 56 c144 -56 299 -105 387 -122 l58 -12 -6 -51 c-4 -28 -12 -77 -18 -108 l-11 -58 -48 0 c-26 0 -51 5 -54 10 -3 6 -21 10 -38 10 -51 1 -300 62 -426 105 -120 41 -119 37 -47 165 33 61 64 110 68 110 3 0 64 -22 135 -49z m3826 5 c-22 -27 -36 -35 -64 -35 -22 -1 -46 7 -59 17 l-23 19 24 16 c16 12 44 17 87 17 l64 0 -29 -34z m-4697 -15 c5 -5 77 -32 159 -60 189 -66 282 -101 303 -117 15 -11 13 -17 -20 -66 -21 -29 -48 -66 -62 -83 -23 -29 -25 -29 -62 -16 -89 31 -394 218 -432 264 -10 12 -4 21 35 51 50 37 63 42 79 27z m3382 -114 c30 -91 33 -110 21 -117 -20 -13 -238 -64 -407 -96 -123 -24 -145 -25 -157 -13 -13 14 -44 184 -34 193 2 3 52 14 109 26 107 21 361 93 389 110 32 19 44 4 79 -103z m1192 56 c35 -14 35 -14 14 -31 -217 -173 -338 -257 -469 -326 -55 -29 -77 -36 -104 -32 -34 5 -91 50 -91 71 0 6 20 21 45 33 25 12 88 48 139 81 51 32 115 66 143 75 59 20 147 71 206 120 44 37 48 37 117 9z m188 -39 l53 -7 -28 -29 c-74 -78 -309 -250 -480 -352 -125 -74 -164 -82 -201 -43 l-22 24 105 61 c107 63 284 194 410 302 48 41 76 58 90 55 11 -2 44 -7 73 -11z m-1994 -156 c9 -56 13 -105 9 -109 -14 -13 -324 -39 -464 -39 -130 0 -136 1 -158 24 -20 22 -22 29 -15 100 l7 76 72 0 c90 0 307 18 423 35 48 7 92 13 98 14 6 0 18 -42 28 -101z m-1154 77 c63 -8 198 -18 299 -22 l183 -6 -4 -98 c-2 -54 -6 -101 -10 -104 -3 -4 -145 1 -314 10 -236 12 -314 19 -331 31 -13 8 -23 19 -23 24 0 9 28 134 36 163 6 21 18 21 164 2z m2155 -85 c28 -44 50 -83 50 -86 0 -13 -157 -74 -189 -74 -19 0 -40 8 -48 18 -23 25 -70 122 -66 134 4 12 164 85 188 86 8 1 37 -35 65 -78z m-3805 35 c25 -20 130 -80 225 -130 50 -26 94 -51 99 -56 6 -6 -4 -23 -25 -45 -58 -61 -58 -61 -177 2 -59 31 -132 70 -164 85 -31 15 -72 42 -91 58 -19 17 -39 31 -44 31 -5 0 -20 11 -32 24 l-23 25 38 6 c22 4 59 12 84 19 45 13 75 7 110 -19z m-282 -49 c115 -87 234 -165 355 -230 48 -26 87 -51 87 -55 0 -4 -17 -16 -38 -25 l-38 -17 -94 49 c-193 101 -390 223 -478 297 l-35 30 59 11 c32 6 65 12 72 13 7 0 56 -32 110 -73z m1096 -27 c111 -39 263 -87 340 -107 l138 -36 -5 -45 c-4 -25 -11 -63 -17 -83 -10 -35 -14 -38 -48 -38 -117 1 -652 157 -700 204 l-24 23 54 76 c29 42 55 76 57 77 2 0 94 -32 205 -71z m2707 -80 c30 -61 37 -84 28 -90 -23 -14 -253 -78 -393 -109 -84 -18 -160 -30 -190 -28 l-51 3 -13 63 c-16 73 -12 92 21 92 34 0 317 73 437 113 58 19 108 36 112 36 4 1 26 -36 49 -80z m429 -64 c27 -27 40 -48 35 -54 -20 -17 -183 -81 -208 -81 -16 0 -36 12 -56 35 -17 20 -31 38 -31 40 0 6 192 104 205 104 6 1 31 -19 55 -44z m-3401 -65 c56 -22 109 -40 118 -40 8 0 29 -7 47 -15 52 -25 247 -85 276 -85 14 0 30 -4 36 -9 5 -5 53 -19 107 -31 81 -19 97 -25 92 -39 -4 -9 -9 -28 -12 -44 -3 -15 -10 -30 -15 -33 -19 -12 -400 85 -608 156 -140 47 -203 74 -221 96 -12 14 -8 21 24 50 20 19 40 34 45 34 4 0 54 -18 111 -40z m1021 25 c58 -8 205 -20 328 -27 l222 -12 0 -52 c0 -28 -3 -66 -6 -84 l-7 -32 -101 5 c-505 28 -570 34 -598 57 -21 16 -21 17 -3 88 20 83 7 79 165 57z m1285 -66 c9 -44 15 -82 13 -84 -2 -3 -78 -14 -169 -25 -199 -25 -486 -38 -514 -22 -18 9 -20 19 -17 84 l3 75 207 12 c114 7 248 19 297 26 50 7 106 13 126 14 l36 1 18 -81z m778 -29 c16 -22 26 -44 22 -50 -15 -24 -505 -162 -632 -176 l-51 -7 -13 42 c-7 25 -9 45 -3 50 5 4 59 18 119 30 111 23 405 108 467 135 50 22 61 19 91 -24z m471 6 c27 -22 27 -25 10 -34 -42 -22 -236 -102 -248 -102 -7 0 -23 11 -36 25 l-23 24 114 55 c63 30 123 55 134 55 11 0 33 -10 49 -23z m-3739 -78 l97 -42 -42 -18 -43 -18 -56 27 c-31 15 -71 32 -90 37 -42 14 -49 29 -19 44 37 17 51 14 153 -30z m3380 -78 c11 -12 15 -24 9 -29 -16 -15 -263 -92 -443 -137 -187 -47 -274 -56 -285 -28 -4 9 -5 18 -4 19 2 1 89 24 193 50 105 26 251 69 325 95 154 54 180 58 205 30z m-3058 -44 c76 -24 208 -60 293 -80 85 -21 161 -40 168 -42 10 -3 10 -9 2 -24 -7 -14 -21 -20 -44 -20 -71 0 -576 141 -613 171 -18 15 -16 27 5 32 36 10 54 6 189 -37z m2220 -5 c7 -25 11 -46 9 -48 -7 -7 -275 -42 -399 -52 -70 -6 -177 -11 -238 -11 l-109 0 0 44 0 43 123 7 c174 10 431 35 507 51 36 7 72 12 80 11 8 0 20 -21 27 -45z m-1467 29 c121 -18 356 -39 508 -46 l152 -7 0 -44 0 -43 -42 0 c-236 1 -693 41 -715 63 -10 9 -10 22 -2 50 11 41 8 40 99 27z m1523 -192 c4 -12 4 -24 2 -26 -2 -3 -60 -12 -127 -22 -292 -43 -600 -52 -633 -20 -14 14 4 17 174 28 178 11 500 48 510 58 2 2 19 4 37 4 24 0 33 -5 37 -22z m-1398 -18 c88 -11 242 -23 343 -27 173 -6 182 -7 182 -26 0 -20 -4 -20 -242 -13 -134 4 -268 12 -298 17 -30 6 -88 13 -127 17 -62 6 -77 11 -100 36 l-28 28 55 -6 c30 -4 127 -16 215 -26z" />
  </g>
</svg>
