<svg viewBox="0 0 28 28" width="28" height="28" xmlns="http://www.w3.org/2000/svg">
  <defs>
    <mask id="punchout">
      <rect width="100%" height="100%" fill="#FFF" />
      <path d="M21.656 18.476c0 .655-.548 1.181-1.211 1.146-.622-.032-1.088-.59-1.088-1.21v-2.536a.862.862 0 0 0-.863-.862h-2.59a.862.862 0 0 0-.863.862v3.462c0 .655-.549 1.18-1.212 1.146-.621-.033-1.087-.59-1.087-1.211v-3.397a.863.863 0 0 0-.864-.862H9.29a.862.862 0 0 0-.863.862v2.6c0 .655-.549 1.181-1.212 1.146-.622-.032-1.088-.59-1.088-1.21V9.255c0-.654.548-1.181 1.211-1.146.623.032 1.09.59 1.09 1.211v2.535c0 .476.385.862.862.862h2.59a.863.863 0 0 0 .863-.862V8.394c0-.654.548-1.18 1.21-1.146.623.032 1.09.59 1.09 1.211v3.397c0 .476.385.862.862.862h2.59a.862.862 0 0 0 .863-.862V9.321c0-.622.466-1.179 1.088-1.211a1.149 1.149 0 0 1 1.211 1.146v9.22Z" fill="#000" />
    </mask>
  </defs>

  <path 
    d="M13.891 0C6.22 0 .001 6.208.001 13.866c0 7.658 6.219 13.866 13.89 13.866 7.672 0 13.89-6.208 13.89-13.866C27.782 6.208 21.564 0 13.892 0Z" 
    fill="#F51344" 
    mask="url(#punchout)" 
  />
</svg>